<?xml version="1.0" encoding="UTF-8"?>
<!--Generator: Apple Native CoreSVG 123-->
<!DOCTYPE svg
PUBLIC "-//W3C//DTD SVG 1.1//EN"
       "http://www.w3.org/Graphics/SVG/1.1/DTD/svg11.dtd">
<svg version="1.1" xmlns="http://www.w3.org/2000/svg" xmlns:xlink="http://www.w3.org/1999/xlink" width="3300" height="2200">
 <!--glyph: "uni1002F2.medium", point size: 100.000000, font version: "Version 15.0d7e11", template writer version: "5"-->
 <g id="Notes">
  <rect height="2200" id="artboard" style="fill:white;opacity:1" width="3300" x="0" y="0"/>
  <line id="" style="fill:none;stroke:black;opacity:1;stroke-width:0.5;" x1="263" x2="3036" y1="292" y2="292"/>
  <text style="stroke:none;fill:black;font-family:-apple-system,&quot;SF Pro Display&quot;,&quot;SF Pro Text&quot;,Helvetica,sans-serif;font-weight:bold;" transform="matrix(1 0 0 1 263 322)">Weight/Scale Variations</text>
  <text style="stroke:none;fill:black;font-family:-apple-system,&quot;SF Pro Display&quot;,&quot;SF Pro Text&quot;,Helvetica,sans-serif;text-anchor:middle;" transform="matrix(1 0 0 1 559.711 322)">Ultralight</text>
  <text style="stroke:none;fill:black;font-family:-apple-system,&quot;SF Pro Display&quot;,&quot;SF Pro Text&quot;,Helvetica,sans-serif;text-anchor:middle;" transform="matrix(1 0 0 1 856.422 322)">Thin</text>
  <text style="stroke:none;fill:black;font-family:-apple-system,&quot;SF Pro Display&quot;,&quot;SF Pro Text&quot;,Helvetica,sans-serif;text-anchor:middle;" transform="matrix(1 0 0 1 1153.13 322)">Light</text>
  <text style="stroke:none;fill:black;font-family:-apple-system,&quot;SF Pro Display&quot;,&quot;SF Pro Text&quot;,Helvetica,sans-serif;text-anchor:middle;" transform="matrix(1 0 0 1 1449.84 322)">Regular</text>
  <text style="stroke:none;fill:black;font-family:-apple-system,&quot;SF Pro Display&quot;,&quot;SF Pro Text&quot;,Helvetica,sans-serif;text-anchor:middle;" transform="matrix(1 0 0 1 1746.56 322)">Medium</text>
  <text style="stroke:none;fill:black;font-family:-apple-system,&quot;SF Pro Display&quot;,&quot;SF Pro Text&quot;,Helvetica,sans-serif;text-anchor:middle;" transform="matrix(1 0 0 1 2043.27 322)">Semibold</text>
  <text style="stroke:none;fill:black;font-family:-apple-system,&quot;SF Pro Display&quot;,&quot;SF Pro Text&quot;,Helvetica,sans-serif;text-anchor:middle;" transform="matrix(1 0 0 1 2339.98 322)">Bold</text>
  <text style="stroke:none;fill:black;font-family:-apple-system,&quot;SF Pro Display&quot;,&quot;SF Pro Text&quot;,Helvetica,sans-serif;text-anchor:middle;" transform="matrix(1 0 0 1 2636.69 322)">Heavy</text>
  <text style="stroke:none;fill:black;font-family:-apple-system,&quot;SF Pro Display&quot;,&quot;SF Pro Text&quot;,Helvetica,sans-serif;text-anchor:middle;" transform="matrix(1 0 0 1 2933.4 322)">Black</text>
  <line id="" style="fill:none;stroke:black;opacity:1;stroke-width:0.5;" x1="263" x2="3036" y1="1903" y2="1903"/>
  <g id="" transform="matrix(1 0 0 1 263 1933)">
   <path d="M 9.24805 0.830078 C 13.5547 0.830078 17.1387 -2.74414 17.1387 -7.05078 C 17.1387 -11.3574 13.5449 -14.9316 9.23828 -14.9316 C 4.94141 -14.9316 1.36719 -11.3574 1.36719 -7.05078 C 1.36719 -2.74414 4.95117 0.830078 9.24805 0.830078 Z M 9.24805 -0.654297 C 5.70312 -0.654297 2.87109 -3.49609 2.87109 -7.05078 C 2.87109 -10.6055 5.69336 -13.4473 9.23828 -13.4473 C 12.793 -13.4473 15.6348 -10.6055 15.6445 -7.05078 C 15.6543 -3.49609 12.8027 -0.654297 9.24805 -0.654297 Z M 9.22852 -3.42773 C 9.69727 -3.42773 9.9707 -3.74023 9.9707 -4.25781 L 9.9707 -6.31836 L 12.1973 -6.31836 C 12.6953 -6.31836 13.0371 -6.57227 13.0371 -7.04102 C 13.0371 -7.51953 12.7148 -7.7832 12.1973 -7.7832 L 9.9707 -7.7832 L 9.9707 -10.0098 C 9.9707 -10.5273 9.69727 -10.8496 9.22852 -10.8496 C 8.75977 -10.8496 8.50586 -10.5078 8.50586 -10.0098 L 8.50586 -7.7832 L 6.29883 -7.7832 C 5.78125 -7.7832 5.44922 -7.51953 5.44922 -7.04102 C 5.44922 -6.57227 5.80078 -6.31836 6.29883 -6.31836 L 8.50586 -6.31836 L 8.50586 -4.25781 C 8.50586 -3.75977 8.75977 -3.42773 9.22852 -3.42773 Z"/>
  </g>
  <g id="" transform="matrix(1 0 0 1 281.506 1933)">
   <path d="M 11.709 2.91016 C 17.1582 2.91016 21.6699 -1.60156 21.6699 -7.05078 C 21.6699 -12.4902 17.1484 -17.0117 11.6992 -17.0117 C 6.25977 -17.0117 1.74805 -12.4902 1.74805 -7.05078 C 1.74805 -1.60156 6.26953 2.91016 11.709 2.91016 Z M 11.709 1.25 C 7.09961 1.25 3.41797 -2.44141 3.41797 -7.05078 C 3.41797 -11.6504 7.08984 -15.3516 11.6992 -15.3516 C 16.3086 -15.3516 20 -11.6504 20.0098 -7.05078 C 20.0195 -2.44141 16.3184 1.25 11.709 1.25 Z M 11.6895 -2.41211 C 12.207 -2.41211 12.5195 -2.77344 12.5195 -3.33984 L 12.5195 -6.23047 L 15.5762 -6.23047 C 16.123 -6.23047 16.5039 -6.51367 16.5039 -7.03125 C 16.5039 -7.55859 16.1426 -7.86133 15.5762 -7.86133 L 12.5195 -7.86133 L 12.5195 -10.9277 C 12.5195 -11.5039 12.207 -11.8555 11.6895 -11.8555 C 11.1719 -11.8555 10.8789 -11.4844 10.8789 -10.9277 L 10.8789 -7.86133 L 7.83203 -7.86133 C 7.26562 -7.86133 6.89453 -7.55859 6.89453 -7.03125 C 6.89453 -6.51367 7.28516 -6.23047 7.83203 -6.23047 L 10.8789 -6.23047 L 10.8789 -3.33984 C 10.8789 -2.79297 11.1719 -2.41211 11.6895 -2.41211 Z"/>
  </g>
  <g id="" transform="matrix(1 0 0 1 304.924 1933)">
   <path d="M 14.9707 5.67383 C 21.9336 5.67383 27.6953 -0.078125 27.6953 -7.04102 C 27.6953 -14.0039 21.9238 -19.7559 14.9609 -19.7559 C 8.00781 -19.7559 2.25586 -14.0039 2.25586 -7.04102 C 2.25586 -0.078125 8.01758 5.67383 14.9707 5.67383 Z M 14.9707 3.85742 C 8.93555 3.85742 4.08203 -1.00586 4.08203 -7.04102 C 4.08203 -13.0762 8.92578 -17.9395 14.9609 -17.9395 C 21.0059 -17.9395 25.8594 -13.0762 25.8691 -7.04102 C 25.8789 -1.00586 21.0156 3.85742 14.9707 3.85742 Z M 14.9512 -1.06445 C 15.5176 -1.06445 15.8691 -1.45508 15.8691 -2.06055 L 15.8691 -6.13281 L 20.1074 -6.13281 C 20.6934 -6.13281 21.1133 -6.46484 21.1133 -7.02148 C 21.1133 -7.59766 20.7227 -7.93945 20.1074 -7.93945 L 15.8691 -7.93945 L 15.8691 -12.1875 C 15.8691 -12.8027 15.5176 -13.1934 14.9512 -13.1934 C 14.3848 -13.1934 14.0625 -12.7832 14.0625 -12.1875 L 14.0625 -7.93945 L 9.83398 -7.93945 C 9.21875 -7.93945 8.80859 -7.59766 8.80859 -7.02148 C 8.80859 -6.46484 9.23828 -6.13281 9.83398 -6.13281 L 14.0625 -6.13281 L 14.0625 -2.06055 C 14.0625 -1.47461 14.3848 -1.06445 14.9512 -1.06445 Z"/>
  </g>
  <text style="stroke:none;fill:black;font-family:-apple-system,&quot;SF Pro Display&quot;,&quot;SF Pro Text&quot;,Helvetica,sans-serif;font-weight:bold;" transform="matrix(1 0 0 1 263 1953)">Design Variations</text>
  <text style="stroke:none;fill:black;font-family:-apple-system,&quot;SF Pro Display&quot;,&quot;SF Pro Text&quot;,Helvetica,sans-serif;" transform="matrix(1 0 0 1 263 1971)">Symbols are supported in up to nine weights and three scales.</text>
  <text style="stroke:none;fill:black;font-family:-apple-system,&quot;SF Pro Display&quot;,&quot;SF Pro Text&quot;,Helvetica,sans-serif;" transform="matrix(1 0 0 1 263 1989)">For optimal layout with text and other symbols, vertically align</text>
  <text style="stroke:none;fill:black;font-family:-apple-system,&quot;SF Pro Display&quot;,&quot;SF Pro Text&quot;,Helvetica,sans-serif;" transform="matrix(1 0 0 1 263 2007)">symbols with the adjacent text.</text>
  <rect height="14" id="" style="fill:#00AEEF;stroke:none;opacity:0.4;" width="3" x="776" y="1919"/>
  <g id="" transform="matrix(1 0 0 1 779 1933)">
   <path d="M 10.5273 0 L 12.373 0 L 7.17773 -14.0918 L 5.43945 -14.0918 L 0.244141 0 L 2.08984 0 L 3.50586 -4.0332 L 9.11133 -4.0332 Z M 6.2793 -11.9531 L 6.33789 -11.9531 L 8.59375 -5.52734 L 4.02344 -5.52734 Z"/>
  </g>
  <rect height="14" id="" style="fill:#00AEEF;stroke:none;opacity:0.4;" width="3" x="791.617" y="1919"/>
  <text style="stroke:none;fill:black;font-family:-apple-system,&quot;SF Pro Display&quot;,&quot;SF Pro Text&quot;,Helvetica,sans-serif;font-weight:bold;" transform="matrix(1 0 0 1 776 1953)">Margins</text>
  <text style="stroke:none;fill:black;font-family:-apple-system,&quot;SF Pro Display&quot;,&quot;SF Pro Text&quot;,Helvetica,sans-serif;" transform="matrix(1 0 0 1 776 1971)">Leading and trailing margins on the left and right side of each symbol</text>
  <text style="stroke:none;fill:black;font-family:-apple-system,&quot;SF Pro Display&quot;,&quot;SF Pro Text&quot;,Helvetica,sans-serif;" transform="matrix(1 0 0 1 776 1989)">can be adjusted by modifying the width of the blue rectangles.</text>
  <text style="stroke:none;fill:black;font-family:-apple-system,&quot;SF Pro Display&quot;,&quot;SF Pro Text&quot;,Helvetica,sans-serif;" transform="matrix(1 0 0 1 776 2007)">Modifications are automatically applied proportionally to all</text>
  <text style="stroke:none;fill:black;font-family:-apple-system,&quot;SF Pro Display&quot;,&quot;SF Pro Text&quot;,Helvetica,sans-serif;" transform="matrix(1 0 0 1 776 2025)">scales and weights.</text>
  <g id="" transform="matrix(1 0 0 1 1289 1933)">
   <path d="M 2.83203 3.11523 L 4.375 4.6582 C 5.22461 5.48828 6.19141 5.41992 7.06055 4.46289 L 17.2754 -6.66016 C 17.7051 -6.36719 18.0957 -6.37695 18.5645 -6.47461 L 19.6094 -6.68945 L 20.3027 -5.99609 L 20.2539 -5.47852 C 20.1855 -4.95117 20.3516 -4.53125 20.8496 -4.0332 L 21.6602 -3.22266 C 22.168 -2.71484 22.8223 -2.68555 23.3008 -3.16406 L 26.5527 -6.41602 C 27.0312 -6.89453 27.0117 -7.54883 26.5039 -8.05664 L 25.6836 -8.87695 C 25.1855 -9.375 24.7754 -9.55078 24.2383 -9.47266 L 23.7109 -9.41406 L 23.0566 -10.0781 L 23.3398 -11.2207 C 23.4863 -11.7871 23.3398 -12.2559 22.7148 -12.8613 L 20.3027 -15.2539 C 16.7578 -18.7793 12.2266 -18.6719 9.11133 -15.5371 C 8.69141 -15.1074 8.64258 -14.5215 8.91602 -14.0918 C 9.15039 -13.7207 9.62891 -13.4961 10.2734 -13.6621 C 11.7871 -14.043 13.3008 -13.9258 14.7852 -12.9199 L 14.1602 -11.3379 C 13.9258 -10.752 13.9453 -10.2734 14.1797 -9.83398 L 3.01758 0.439453 C 2.08008 1.30859 1.97266 2.25586 2.83203 3.11523 Z M 10.6738 -15.1465 C 13.3398 -17.1387 16.6504 -16.8262 19.0527 -14.4141 L 21.6797 -11.8066 C 21.9141 -11.5723 21.9434 -11.3867 21.8848 -11.0938 L 21.5039 -9.53125 L 23.0762 -7.95898 L 24.043 -8.04688 C 24.3262 -8.07617 24.4141 -8.05664 24.6387 -7.83203 L 25.2637 -7.20703 L 22.5098 -4.46289 L 21.8848 -5.07812 C 21.6602 -5.30273 21.6406 -5.40039 21.6699 -5.68359 L 21.7578 -6.64062 L 20.1953 -8.20312 L 18.5742 -7.89062 C 18.291 -7.83203 18.1445 -7.83203 17.9102 -8.07617 L 15.7324 -10.2539 C 15.5078 -10.4883 15.4785 -10.625 15.6055 -10.9473 L 16.5527 -13.2227 C 14.9512 -14.7559 12.8418 -15.6055 10.8008 -14.9512 C 10.7129 -14.9219 10.6445 -14.9414 10.6152 -14.9805 C 10.5859 -15.0293 10.5859 -15.0781 10.6738 -15.1465 Z M 4.10156 2.41211 C 3.61328 1.91406 3.78906 1.61133 4.12109 1.30859 L 15.0781 -8.80859 L 16.3086 -7.57812 L 6.15234 3.34961 C 5.84961 3.68164 5.46875 3.7793 5.06836 3.37891 Z"/>
  </g>
  <text style="stroke:none;fill:black;font-family:-apple-system,&quot;SF Pro Display&quot;,&quot;SF Pro Text&quot;,Helvetica,sans-serif;font-weight:bold;" transform="matrix(1 0 0 1 1289 1953)">Exporting</text>
  <text style="stroke:none;fill:black;font-family:-apple-system,&quot;SF Pro Display&quot;,&quot;SF Pro Text&quot;,Helvetica,sans-serif;" transform="matrix(1 0 0 1 1289 1971)">Symbols should be outlined when exporting to ensure the</text>
  <text style="stroke:none;fill:black;font-family:-apple-system,&quot;SF Pro Display&quot;,&quot;SF Pro Text&quot;,Helvetica,sans-serif;" transform="matrix(1 0 0 1 1289 1989)">design is preserved when submitting to Xcode.</text>
  <text id="template-version" style="stroke:none;fill:black;font-family:-apple-system,&quot;SF Pro Display&quot;,&quot;SF Pro Text&quot;,Helvetica,sans-serif;text-anchor:end;" transform="matrix(1 0 0 1 3036 1933)">Template v.1.0</text>
  <text style="stroke:none;fill:black;font-family:-apple-system,&quot;SF Pro Display&quot;,&quot;SF Pro Text&quot;,Helvetica,sans-serif;text-anchor:end;" transform="matrix(1 0 0 1 3036 1951)">Generated from list.bullet</text>
  <text style="stroke:none;fill:black;font-family:-apple-system,&quot;SF Pro Display&quot;,&quot;SF Pro Text&quot;,Helvetica,sans-serif;text-anchor:end;" transform="matrix(1 0 0 1 3036 1969)">Typeset at 100 points</text>
  <text style="stroke:none;fill:black;font-family:-apple-system,&quot;SF Pro Display&quot;,&quot;SF Pro Text&quot;,Helvetica,sans-serif;" transform="matrix(1 0 0 1 263 726)">Small</text>
  <text style="stroke:none;fill:black;font-family:-apple-system,&quot;SF Pro Display&quot;,&quot;SF Pro Text&quot;,Helvetica,sans-serif;" transform="matrix(1 0 0 1 263 1156)">Medium</text>
  <text style="stroke:none;fill:black;font-family:-apple-system,&quot;SF Pro Display&quot;,&quot;SF Pro Text&quot;,Helvetica,sans-serif;" transform="matrix(1 0 0 1 263 1586)">Large</text>
 </g>
 <g id="Guides">
  <g id="H-reference" style="fill:#27AAE1;stroke:none;" transform="matrix(1 0 0 1 339 696)">
   <path d="M 54.9316 0 L 57.666 0 L 30.5664 -70.459 L 28.0762 -70.459 L 0.976562 0 L 3.66211 0 L 12.9395 -24.4629 L 45.7031 -24.4629 Z M 29.1992 -67.0898 L 29.4434 -67.0898 L 44.8242 -26.709 L 13.8184 -26.709 Z"/>
  </g>
  <line id="Baseline-S" style="fill:none;stroke:#27AAE1;opacity:1;stroke-width:0.577;" x1="263" x2="3036" y1="696" y2="696"/>
  <line id="Capline-S" style="fill:none;stroke:#27AAE1;opacity:1;stroke-width:0.577;" x1="263" x2="3036" y1="625.541" y2="625.541"/>
  <g id="H-reference" style="fill:#27AAE1;stroke:none;" transform="matrix(1 0 0 1 339 1126)">
   <path d="M 54.9316 0 L 57.666 0 L 30.5664 -70.459 L 28.0762 -70.459 L 0.976562 0 L 3.66211 0 L 12.9395 -24.4629 L 45.7031 -24.4629 Z M 29.1992 -67.0898 L 29.4434 -67.0898 L 44.8242 -26.709 L 13.8184 -26.709 Z"/>
  </g>
  <line id="Baseline-M" style="fill:none;stroke:#27AAE1;opacity:1;stroke-width:0.577;" x1="263" x2="3036" y1="1126" y2="1126"/>
  <line id="Capline-M" style="fill:none;stroke:#27AAE1;opacity:1;stroke-width:0.577;" x1="263" x2="3036" y1="1055.54" y2="1055.54"/>
  <g id="H-reference" style="fill:#27AAE1;stroke:none;" transform="matrix(1 0 0 1 339 1556)">
   <path d="M 54.9316 0 L 57.666 0 L 30.5664 -70.459 L 28.0762 -70.459 L 0.976562 0 L 3.66211 0 L 12.9395 -24.4629 L 45.7031 -24.4629 Z M 29.1992 -67.0898 L 29.4434 -67.0898 L 44.8242 -26.709 L 13.8184 -26.709 Z"/>
  </g>
  <line id="Baseline-L" style="fill:none;stroke:#27AAE1;opacity:1;stroke-width:0.577;" x1="263" x2="3036" y1="1556" y2="1556"/>
  <line id="Capline-L" style="fill:none;stroke:#27AAE1;opacity:1;stroke-width:0.577;" x1="263" x2="3036" y1="1485.54" y2="1485.54"/>
  <rect height="119.336" id="left-margin" style="fill:#00AEEF;stroke:none;opacity:0.4;" width="12.4512" x="1388.2" y="1030.79"/>
  <rect height="119.336" id="right-margin" style="fill:#00AEEF;stroke:none;opacity:0.4;" width="12.4512" x="1499.04" y="1030.79"/>
 </g>
 <g id="Symbols">
  <g id="Black-L" transform="matrix(1 0 0 1 2847.17 1556)">
   <path d="M 28.125 -63.8672 C 34.7656 -63.8672 40.2344 -69.3359 40.2344 -75.9766 C 40.2344 -82.6172 34.7656 -88.0371 28.125 -88.0371 C 21.5332 -88.0371 16.0645 -82.6172 16.0645 -75.9766 C 16.0645 -69.3359 21.5332 -63.8672 28.125 -63.8672 Z M 63.2812 -66.6992 L 147.168 -66.6992 C 152.295 -66.6992 156.396 -70.8008 156.396 -75.9766 C 156.396 -81.1035 152.344 -85.2051 147.168 -85.2051 L 63.2812 -85.2051 C 58.1543 -85.2051 54.0527 -81.1523 54.0527 -75.9766 C 54.0527 -70.8496 58.1055 -66.6992 63.2812 -66.6992 Z M 28.125 -23.0957 C 34.7656 -23.0957 40.2344 -28.5645 40.2344 -35.2051 C 40.2344 -41.7969 34.7656 -47.2656 28.125 -47.2656 C 21.5332 -47.2656 16.0645 -41.7969 16.0645 -35.2051 C 16.0645 -28.5645 21.5332 -23.0957 28.125 -23.0957 Z M 63.2812 -25.9277 L 147.168 -25.9277 C 152.295 -25.9277 156.396 -29.9805 156.396 -35.2051 C 156.396 -40.332 152.344 -44.4336 147.168 -44.4336 L 63.2812 -44.4336 C 58.1543 -44.4336 54.0527 -40.3809 54.0527 -35.2051 C 54.0527 -30.0781 58.1055 -25.9277 63.2812 -25.9277 Z M 28.125 17.6758 C 34.7656 17.6758 40.2344 12.207 40.2344 5.56641 C 40.2344 -1.02539 34.7656 -6.49414 28.125 -6.49414 C 21.5332 -6.49414 16.0645 -1.02539 16.0645 5.56641 C 16.0645 12.207 21.5332 17.6758 28.125 17.6758 Z M 63.2812 14.8438 L 147.168 14.8438 C 152.295 14.8438 156.396 10.791 156.396 5.56641 C 156.396 0.439453 152.344 -3.66211 147.168 -3.66211 L 63.2812 -3.66211 C 58.1543 -3.66211 54.0527 0.390625 54.0527 5.56641 C 54.0527 10.6934 58.1055 14.8438 63.2812 14.8438 Z"/>
  </g>
  <g id="Heavy-L" transform="matrix(1 0 0 1 2552.19 1556)">
   <path d="M 27.0996 -64.209 C 33.1543 -64.209 38.1348 -69.1895 38.1348 -75.2441 C 38.1348 -81.3477 33.1543 -86.3281 27.0996 -86.3281 C 21.0449 -86.3281 16.0645 -81.3477 16.0645 -75.2441 C 16.0645 -69.1895 21.0449 -64.209 27.0996 -64.209 Z M 60.3516 -67.1875 L 144.824 -67.1875 C 149.365 -67.1875 152.93 -70.7031 152.93 -75.2441 C 152.93 -79.7852 149.365 -83.3496 144.824 -83.3496 L 60.3516 -83.3496 C 55.8594 -83.3496 52.2949 -79.834 52.2949 -75.2441 C 52.2949 -70.752 55.8105 -67.1875 60.3516 -67.1875 Z M 27.0996 -24.1699 C 33.1543 -24.1699 38.1348 -29.1016 38.1348 -35.2051 C 38.1348 -41.2598 33.1543 -46.2402 27.0996 -46.2402 C 21.0449 -46.2402 16.0645 -41.2598 16.0645 -35.2051 C 16.0645 -29.1016 21.0449 -24.1699 27.0996 -24.1699 Z M 60.3516 -27.0996 L 144.824 -27.0996 C 149.365 -27.0996 152.93 -30.6641 152.93 -35.2051 C 152.93 -39.6973 149.365 -43.2617 144.824 -43.2617 L 60.3516 -43.2617 C 55.8594 -43.2617 52.2949 -39.7461 52.2949 -35.2051 C 52.2949 -30.7129 55.8105 -27.0996 60.3516 -27.0996 Z M 27.0996 15.918 C 33.1543 15.918 38.1348 10.9375 38.1348 4.88281 C 38.1348 -1.17188 33.1543 -6.15234 27.0996 -6.15234 C 21.0449 -6.15234 16.0645 -1.17188 16.0645 4.88281 C 16.0645 10.9375 21.0449 15.918 27.0996 15.918 Z M 60.3516 12.9883 L 144.824 12.9883 C 149.365 12.9883 152.93 9.42383 152.93 4.88281 C 152.93 0.390625 149.365 -3.17383 144.824 -3.17383 L 60.3516 -3.17383 C 55.8594 -3.17383 52.2949 0.341797 52.2949 4.88281 C 52.2949 9.375 55.8105 12.9883 60.3516 12.9883 Z"/>
  </g>
  <g id="Bold-L" transform="matrix(1 0 0 1 2257.43 1556)">
   <path d="M 25.9277 -64.5996 C 31.3477 -64.5996 35.791 -69.043 35.791 -74.5117 C 35.791 -79.9316 31.3477 -84.375 25.9277 -84.375 C 20.5078 -84.375 16.0645 -79.9316 16.0645 -74.5117 C 16.0645 -69.043 20.5078 -64.5996 25.9277 -64.5996 Z M 57.0801 -67.7246 L 142.236 -67.7246 C 146.045 -67.7246 149.023 -70.6543 149.023 -74.5117 C 149.023 -78.2715 146.045 -81.25 142.236 -81.25 L 57.0801 -81.25 C 53.2715 -81.25 50.293 -78.3203 50.293 -74.5117 C 50.293 -70.7031 53.2715 -67.7246 57.0801 -67.7246 Z M 25.9277 -25.3418 C 31.3477 -25.3418 35.791 -29.7363 35.791 -35.2051 C 35.791 -40.625 31.3477 -45.0684 25.9277 -45.0684 C 20.5078 -45.0684 16.0645 -40.625 16.0645 -35.2051 C 16.0645 -29.7363 20.5078 -25.3418 25.9277 -25.3418 Z M 57.0801 -28.418 L 142.236 -28.418 C 146.045 -28.418 149.023 -31.3477 149.023 -35.2051 C 149.023 -38.9648 146.045 -41.9922 142.236 -41.9922 L 57.0801 -41.9922 C 53.2715 -41.9922 50.293 -39.0137 50.293 -35.2051 C 50.293 -31.3965 53.2715 -28.418 57.0801 -28.418 Z M 25.9277 13.9648 C 31.3477 13.9648 35.791 9.52148 35.791 4.10156 C 35.791 -1.31836 31.3477 -5.76172 25.9277 -5.76172 C 20.5078 -5.76172 16.0645 -1.31836 16.0645 4.10156 C 16.0645 9.52148 20.5078 13.9648 25.9277 13.9648 Z M 57.0801 10.8887 L 142.236 10.8887 C 146.045 10.8887 149.023 7.91016 149.023 4.10156 C 149.023 0.341797 146.045 -2.68555 142.236 -2.68555 L 57.0801 -2.68555 C 53.2715 -2.68555 50.293 0.292969 50.293 4.10156 C 50.293 7.91016 53.2715 10.8887 57.0801 10.8887 Z"/>
  </g>
  <g id="Semibold-L" transform="matrix(1 0 0 1 1962.07 1556)">
   <path d="M 25.1465 -64.8926 C 30.127 -64.8926 34.1797 -68.9453 34.1797 -73.9258 C 34.1797 -78.9551 30.127 -83.0078 25.1465 -83.0078 C 20.1172 -83.0078 16.0645 -78.9551 16.0645 -73.9258 C 16.0645 -68.9453 20.1172 -64.8926 25.1465 -64.8926 Z M 54.834 -68.0664 L 140.43 -68.0664 C 143.75 -68.0664 146.338 -70.6543 146.338 -73.9258 C 146.338 -77.2461 143.75 -79.834 140.43 -79.834 L 54.834 -79.834 C 51.5137 -79.834 48.9258 -77.2461 48.9258 -73.9258 C 48.9258 -70.6543 51.5137 -68.0664 54.834 -68.0664 Z M 25.1465 -26.123 C 30.127 -26.123 34.1797 -30.1758 34.1797 -35.2051 C 34.1797 -40.1855 30.127 -44.2383 25.1465 -44.2383 C 20.1172 -44.2383 16.0645 -40.1855 16.0645 -35.2051 C 16.0645 -30.1758 20.1172 -26.123 25.1465 -26.123 Z M 54.834 -29.2969 L 140.43 -29.2969 C 143.75 -29.2969 146.338 -31.8848 146.338 -35.2051 C 146.338 -38.4766 143.75 -41.0645 140.43 -41.0645 L 54.834 -41.0645 C 51.5137 -41.0645 48.9258 -38.5254 48.9258 -35.2051 C 48.9258 -31.8848 51.5137 -29.2969 54.834 -29.2969 Z M 25.1465 12.6465 C 30.127 12.6465 34.1797 8.59375 34.1797 3.56445 C 34.1797 -1.41602 30.127 -5.51758 25.1465 -5.51758 C 20.1172 -5.51758 16.0645 -1.41602 16.0645 3.56445 C 16.0645 8.59375 20.1172 12.6465 25.1465 12.6465 Z M 54.834 9.47266 L 140.43 9.47266 C 143.75 9.47266 146.338 6.88477 146.338 3.56445 C 146.338 0.292969 143.75 -2.29492 140.43 -2.29492 L 54.834 -2.29492 C 51.5137 -2.29492 48.9258 0.244141 48.9258 3.56445 C 48.9258 6.88477 51.5137 9.47266 54.834 9.47266 Z"/>
  </g>
  <g id="Medium-L" transform="matrix(1 0 0 1 1666.38 1556)">
   <path d="M 24.5117 -65.0879 C 29.1992 -65.0879 32.959 -68.8477 32.959 -73.5352 C 32.959 -78.2227 29.1992 -81.9824 24.5117 -81.9824 C 19.873 -81.9824 16.0645 -78.2227 16.0645 -73.5352 C 16.0645 -68.8477 19.873 -65.0879 24.5117 -65.0879 Z M 53.125 -68.3105 L 139.062 -68.3105 C 141.992 -68.3105 144.287 -70.6055 144.287 -73.5352 C 144.287 -76.4648 142.041 -78.7598 139.062 -78.7598 L 53.125 -78.7598 C 50.1953 -78.7598 47.9004 -76.4648 47.9004 -73.5352 C 47.9004 -70.6055 50.1953 -68.3105 53.125 -68.3105 Z M 24.5117 -26.709 C 29.1992 -26.709 32.959 -30.5176 32.959 -35.2051 C 32.959 -39.8438 29.1992 -43.6523 24.5117 -43.6523 C 19.873 -43.6523 16.0645 -39.8438 16.0645 -35.2051 C 16.0645 -30.5176 19.873 -26.709 24.5117 -26.709 Z M 53.125 -29.9805 L 139.062 -29.9805 C 141.992 -29.9805 144.287 -32.2266 144.287 -35.2051 C 144.287 -38.1348 142.041 -40.3809 139.062 -40.3809 L 53.125 -40.3809 C 50.1953 -40.3809 47.9004 -38.1348 47.9004 -35.2051 C 47.9004 -32.2754 50.1953 -29.9805 53.125 -29.9805 Z M 24.5117 11.6211 C 29.1992 11.6211 32.959 7.8125 32.959 3.17383 C 32.959 -1.51367 29.1992 -5.27344 24.5117 -5.27344 C 19.873 -5.27344 16.0645 -1.51367 16.0645 3.17383 C 16.0645 7.8125 19.873 11.6211 24.5117 11.6211 Z M 53.125 8.39844 L 139.062 8.39844 C 141.992 8.39844 144.287 6.10352 144.287 3.17383 C 144.287 0.244141 142.041 -2.05078 139.062 -2.05078 L 53.125 -2.05078 C 50.1953 -2.05078 47.9004 0.244141 47.9004 3.17383 C 47.9004 6.10352 50.1953 8.39844 53.125 8.39844 Z"/>
  </g>
  <g id="Regular-L" transform="matrix(1 0 0 1 1370.99 1556)">
   <path d="M 23.7305 -65.332 C 27.9785 -65.332 31.3965 -68.75 31.3965 -72.998 C 31.3965 -77.2461 27.9785 -80.6641 23.7305 -80.6641 C 19.4824 -80.6641 16.0645 -77.2461 16.0645 -72.998 C 16.0645 -68.75 19.4824 -65.332 23.7305 -65.332 Z M 50.8789 -68.7012 L 137.305 -68.7012 C 139.746 -68.7012 141.65 -70.5566 141.65 -72.998 C 141.65 -75.4395 139.746 -77.3438 137.305 -77.3438 L 50.8789 -77.3438 C 48.4375 -77.3438 46.582 -75.4395 46.582 -72.998 C 46.582 -70.5566 48.4375 -68.7012 50.8789 -68.7012 Z M 23.7305 -27.5391 C 27.9785 -27.5391 31.3965 -30.957 31.3965 -35.2051 C 31.3965 -39.4531 27.9785 -42.8711 23.7305 -42.8711 C 19.4824 -42.8711 16.0645 -39.4531 16.0645 -35.2051 C 16.0645 -30.957 19.4824 -27.5391 23.7305 -27.5391 Z M 50.8789 -30.8594 L 137.305 -30.8594 C 139.746 -30.8594 141.65 -32.7637 141.65 -35.2051 C 141.65 -37.6465 139.746 -39.502 137.305 -39.502 L 50.8789 -39.502 C 48.4375 -39.502 46.582 -37.6465 46.582 -35.2051 C 46.582 -32.7637 48.4375 -30.8594 50.8789 -30.8594 Z M 23.7305 10.3027 C 27.9785 10.3027 31.3965 6.88477 31.3965 2.63672 C 31.3965 -1.61133 27.9785 -5.0293 23.7305 -5.0293 C 19.4824 -5.0293 16.0645 -1.61133 16.0645 2.63672 C 16.0645 6.88477 19.4824 10.3027 23.7305 10.3027 Z M 50.8789 6.93359 L 137.305 6.93359 C 139.746 6.93359 141.65 5.07812 141.65 2.63672 C 141.65 0.195312 139.746 -1.70898 137.305 -1.70898 L 50.8789 -1.70898 C 48.4375 -1.70898 46.582 0.195312 46.582 2.63672 C 46.582 5.07812 48.4375 6.93359 50.8789 6.93359 Z"/>
  </g>
  <g id="Light-L" transform="matrix(1 0 0 1 1075.2 1556)">
   <path d="M 23.3398 -65.332 C 27.3926 -65.332 30.6641 -68.6035 30.6641 -72.6562 C 30.6641 -76.6602 27.3926 -79.9316 23.3398 -79.9316 C 19.3359 -79.9316 16.0645 -76.6602 16.0645 -72.6562 C 16.0645 -68.6035 19.3359 -65.332 23.3398 -65.332 Z M 49.6094 -69.3359 L 136.475 -69.3359 C 138.379 -69.3359 139.795 -70.752 139.795 -72.6562 C 139.795 -74.5117 138.379 -75.9277 136.475 -75.9277 L 49.6094 -75.9277 C 47.7051 -75.9277 46.2891 -74.5117 46.2891 -72.6562 C 46.2891 -70.752 47.7051 -69.3359 49.6094 -69.3359 Z M 23.3398 -27.8809 C 27.3926 -27.8809 30.6641 -31.1523 30.6641 -35.2051 C 30.6641 -39.209 27.3926 -42.4805 23.3398 -42.4805 C 19.3359 -42.4805 16.0645 -39.209 16.0645 -35.2051 C 16.0645 -31.1523 19.3359 -27.8809 23.3398 -27.8809 Z M 49.6094 -31.8848 L 136.475 -31.8848 C 138.379 -31.8848 139.795 -33.3008 139.795 -35.2051 C 139.795 -37.0605 138.379 -38.4766 136.475 -38.4766 L 49.6094 -38.4766 C 47.7051 -38.4766 46.2891 -37.0605 46.2891 -35.2051 C 46.2891 -33.3008 47.7051 -31.8848 49.6094 -31.8848 Z M 23.3398 9.57031 C 27.3926 9.57031 30.6641 6.29883 30.6641 2.24609 C 30.6641 -1.75781 27.3926 -5.0293 23.3398 -5.0293 C 19.3359 -5.0293 16.0645 -1.75781 16.0645 2.24609 C 16.0645 6.29883 19.3359 9.57031 23.3398 9.57031 Z M 49.6094 5.56641 L 136.475 5.56641 C 138.379 5.56641 139.795 4.15039 139.795 2.24609 C 139.795 0.390625 138.379 -1.02539 136.475 -1.02539 L 49.6094 -1.02539 C 47.7051 -1.02539 46.2891 0.390625 46.2891 2.24609 C 46.2891 4.15039 47.7051 5.56641 49.6094 5.56641 Z"/>
  </g>
  <g id="Thin-L" transform="matrix(1 0 0 1 779.713 1556)">
   <path d="M 22.8516 -65.332 C 26.6602 -65.332 29.6875 -68.3594 29.6875 -72.168 C 29.6875 -75.9277 26.6602 -78.9551 22.8516 -78.9551 C 19.0918 -78.9551 16.0645 -75.9277 16.0645 -72.168 C 16.0645 -68.3594 19.0918 -65.332 22.8516 -65.332 Z M 47.9004 -70.166 L 135.4 -70.166 C 136.523 -70.166 137.354 -70.9961 137.354 -72.168 C 137.354 -73.291 136.523 -74.1211 135.4 -74.1211 L 47.9004 -74.1211 C 46.7285 -74.1211 45.8984 -73.291 45.8984 -72.168 C 45.8984 -70.9961 46.7285 -70.166 47.9004 -70.166 Z M 22.8516 -28.3691 C 26.6602 -28.3691 29.6875 -31.3965 29.6875 -35.2051 C 29.6875 -38.9648 26.6602 -41.9922 22.8516 -41.9922 C 19.0918 -41.9922 16.0645 -38.9648 16.0645 -35.2051 C 16.0645 -31.3965 19.0918 -28.3691 22.8516 -28.3691 Z M 47.9004 -33.2031 L 135.4 -33.2031 C 136.523 -33.2031 137.354 -34.0332 137.354 -35.2051 C 137.354 -36.3281 136.523 -37.1582 135.4 -37.1582 L 47.9004 -37.1582 C 46.7285 -37.1582 45.8984 -36.3281 45.8984 -35.2051 C 45.8984 -34.0332 46.7285 -33.2031 47.9004 -33.2031 Z M 22.8516 8.59375 C 26.6602 8.59375 29.6875 5.56641 29.6875 1.75781 C 29.6875 -2.00195 26.6602 -5.0293 22.8516 -5.0293 C 19.0918 -5.0293 16.0645 -2.00195 16.0645 1.75781 C 16.0645 5.56641 19.0918 8.59375 22.8516 8.59375 Z M 47.9004 3.75977 L 135.4 3.75977 C 136.523 3.75977 137.354 2.92969 137.354 1.75781 C 137.354 0.634766 136.523 -0.195312 135.4 -0.195312 L 47.9004 -0.195312 C 46.7285 -0.195312 45.8984 0.634766 45.8984 1.75781 C 45.8984 2.92969 46.7285 3.75977 47.9004 3.75977 Z"/>
  </g>
  <g id="Ultralight-L" transform="matrix(1 0 0 1 483.637 1556)">
   <path d="M 22.6074 -65.332 C 26.2695 -65.332 29.1504 -68.2617 29.1504 -71.9238 C 29.1504 -75.5371 26.2695 -78.4668 22.6074 -78.4668 C 18.9941 -78.4668 16.0645 -75.5371 16.0645 -71.9238 C 16.0645 -68.2617 18.9941 -65.332 22.6074 -65.332 Z M 47.0215 -70.6055 L 134.814 -70.6055 C 135.596 -70.6055 136.084 -71.0938 136.084 -71.9238 C 136.084 -72.7051 135.596 -73.1934 134.814 -73.1934 L 47.0215 -73.1934 C 46.2402 -73.1934 45.752 -72.7051 45.752 -71.9238 C 45.752 -71.0938 46.2402 -70.6055 47.0215 -70.6055 Z M 22.6074 -28.6133 C 26.2695 -28.6133 29.1504 -31.543 29.1504 -35.2051 C 29.1504 -38.8184 26.2695 -41.748 22.6074 -41.748 C 18.9941 -41.748 16.0645 -38.8184 16.0645 -35.2051 C 16.0645 -31.543 18.9941 -28.6133 22.6074 -28.6133 Z M 47.0215 -33.9355 L 134.814 -33.9355 C 135.596 -33.9355 136.084 -34.4238 136.084 -35.2051 C 136.084 -35.9863 135.596 -36.4746 134.814 -36.4746 L 47.0215 -36.4746 C 46.2402 -36.4746 45.752 -35.9863 45.752 -35.2051 C 45.752 -34.4238 46.2402 -33.9355 47.0215 -33.9355 Z M 22.6074 8.05664 C 26.2695 8.05664 29.1504 5.17578 29.1504 1.51367 C 29.1504 -2.09961 26.2695 -5.0293 22.6074 -5.0293 C 18.9941 -5.0293 16.0645 -2.09961 16.0645 1.51367 C 16.0645 5.17578 18.9941 8.05664 22.6074 8.05664 Z M 47.0215 2.7832 L 134.814 2.7832 C 135.596 2.7832 136.084 2.29492 136.084 1.51367 C 136.084 0.732422 135.596 0.244141 134.814 0.244141 L 47.0215 0.244141 C 46.2402 0.244141 45.752 0.732422 45.752 1.51367 C 45.752 2.29492 46.2402 2.7832 47.0215 2.7832 Z"/>
  </g>
  <g id="Black-M" transform="matrix(1 0 0 1 2864.7 1126)">
   <path d="M 22.998 -56.9824 C 28.8086 -56.9824 33.5938 -61.7676 33.5938 -67.5293 C 33.5938 -73.3398 28.8086 -78.125 22.998 -78.125 C 17.2363 -78.125 12.4512 -73.3398 12.4512 -67.5293 C 12.4512 -61.7676 17.2363 -56.9824 22.998 -56.9824 Z M 52.2949 -59.375 L 116.748 -59.375 C 121.289 -59.375 124.951 -62.9395 124.951 -67.5293 C 124.951 -72.0703 121.338 -75.7324 116.748 -75.7324 L 52.2949 -75.7324 C 47.7539 -75.7324 44.0918 -72.1191 44.0918 -67.5293 C 44.0918 -62.9883 47.7051 -59.375 52.2949 -59.375 Z M 22.998 -24.6094 C 28.8086 -24.6094 33.5938 -29.3945 33.5938 -35.2051 C 33.5938 -40.9668 28.8086 -45.752 22.998 -45.752 C 17.2363 -45.752 12.4512 -40.9668 12.4512 -35.2051 C 12.4512 -29.3945 17.2363 -24.6094 22.998 -24.6094 Z M 52.2949 -27.002 L 116.748 -27.002 C 121.289 -27.002 124.951 -30.6152 124.951 -35.2051 C 124.951 -39.7461 121.338 -43.4082 116.748 -43.4082 L 52.2949 -43.4082 C 47.7539 -43.4082 44.0918 -39.7949 44.0918 -35.2051 C 44.0918 -30.6641 47.7051 -27.002 52.2949 -27.002 Z M 22.998 7.71484 C 28.8086 7.71484 33.5938 2.92969 33.5938 -2.83203 C 33.5938 -8.64258 28.8086 -13.4277 22.998 -13.4277 C 17.2363 -13.4277 12.4512 -8.64258 12.4512 -2.83203 C 12.4512 2.92969 17.2363 7.71484 22.998 7.71484 Z M 52.2949 5.32227 L 116.748 5.32227 C 121.289 5.32227 124.951 1.75781 124.951 -2.83203 C 124.951 -7.37305 121.338 -11.0352 116.748 -11.0352 L 52.2949 -11.0352 C 47.7539 -11.0352 44.0918 -7.4707 44.0918 -2.83203 C 44.0918 1.66016 47.7051 5.32227 52.2949 5.32227 Z"/>
  </g>
  <g id="Heavy-M" transform="matrix(1 0 0 1 2569.65 1126)">
   <path d="M 21.9727 -57.373 C 27.1973 -57.373 31.4941 -61.6699 31.4941 -66.8945 C 31.4941 -72.1191 27.1973 -76.416 21.9727 -76.416 C 16.748 -76.416 12.4512 -72.1191 12.4512 -66.8945 C 12.4512 -61.6699 16.748 -57.373 21.9727 -57.373 Z M 49.4141 -59.7168 L 114.404 -59.7168 C 118.408 -59.7168 121.631 -62.8418 121.631 -66.8945 C 121.631 -70.8496 118.457 -74.0723 114.404 -74.0723 L 49.4141 -74.0723 C 45.459 -74.0723 42.2363 -70.8984 42.2363 -66.8945 C 42.2363 -62.8906 45.4102 -59.7168 49.4141 -59.7168 Z M 21.9727 -25.6836 C 27.1973 -25.6836 31.4941 -29.9805 31.4941 -35.2051 C 31.4941 -40.4297 27.1973 -44.7266 21.9727 -44.7266 C 16.748 -44.7266 12.4512 -40.4297 12.4512 -35.2051 C 12.4512 -29.9805 16.748 -25.6836 21.9727 -25.6836 Z M 49.4141 -28.0273 L 114.404 -28.0273 C 118.408 -28.0273 121.631 -31.1523 121.631 -35.2051 C 121.631 -39.1602 118.457 -42.3828 114.404 -42.3828 L 49.4141 -42.3828 C 45.459 -42.3828 42.2363 -39.209 42.2363 -35.2051 C 42.2363 -31.2012 45.4102 -28.0273 49.4141 -28.0273 Z M 21.9727 6.00586 C 27.1973 6.00586 31.4941 1.70898 31.4941 -3.51562 C 31.4941 -8.74023 27.1973 -13.0371 21.9727 -13.0371 C 16.748 -13.0371 12.4512 -8.74023 12.4512 -3.51562 C 12.4512 1.70898 16.748 6.00586 21.9727 6.00586 Z M 49.4141 3.66211 L 114.404 3.66211 C 118.408 3.66211 121.631 0.537109 121.631 -3.51562 C 121.631 -7.51953 118.457 -10.6934 114.404 -10.6934 L 49.4141 -10.6934 C 45.459 -10.6934 42.2363 -7.56836 42.2363 -3.51562 C 42.2363 0.488281 45.4102 3.66211 49.4141 3.66211 Z"/>
  </g>
  <g id="Bold-M" transform="matrix(1 0 0 1 2274.82 1126)">
   <path d="M 20.8008 -57.7637 C 25.3906 -57.7637 29.1504 -61.5234 29.1504 -66.1133 C 29.1504 -70.7031 25.3906 -74.5117 20.8008 -74.5117 C 16.2109 -74.5117 12.4512 -70.7031 12.4512 -66.1133 C 12.4512 -61.5234 16.2109 -57.7637 20.8008 -57.7637 Z M 46.2402 -60.0586 L 111.816 -60.0586 C 115.186 -60.0586 117.871 -62.7441 117.871 -66.1133 C 117.871 -69.4824 115.234 -72.168 111.816 -72.168 L 46.2402 -72.168 C 42.8711 -72.168 40.1855 -69.5312 40.1855 -66.1133 C 40.1855 -62.7441 42.8223 -60.0586 46.2402 -60.0586 Z M 20.8008 -26.8555 C 25.3906 -26.8555 29.1504 -30.6152 29.1504 -35.2051 C 29.1504 -39.7949 25.3906 -43.5547 20.8008 -43.5547 C 16.2109 -43.5547 12.4512 -39.7949 12.4512 -35.2051 C 12.4512 -30.6152 16.2109 -26.8555 20.8008 -26.8555 Z M 46.2402 -29.1504 L 111.816 -29.1504 C 115.186 -29.1504 117.871 -31.7871 117.871 -35.2051 C 117.871 -38.5742 115.234 -41.2598 111.816 -41.2598 L 46.2402 -41.2598 C 42.8711 -41.2598 40.1855 -38.623 40.1855 -35.2051 C 40.1855 -31.8359 42.8223 -29.1504 46.2402 -29.1504 Z M 20.8008 4.10156 C 25.3906 4.10156 29.1504 0.341797 29.1504 -4.24805 C 29.1504 -8.83789 25.3906 -12.6465 20.8008 -12.6465 C 16.2109 -12.6465 12.4512 -8.83789 12.4512 -4.24805 C 12.4512 0.341797 16.2109 4.10156 20.8008 4.10156 Z M 46.2402 1.80664 L 111.816 1.80664 C 115.186 1.80664 117.871 -0.878906 117.871 -4.24805 C 117.871 -7.61719 115.234 -10.3027 111.816 -10.3027 L 46.2402 -10.3027 C 42.8711 -10.3027 40.1855 -7.66602 40.1855 -4.24805 C 40.1855 -0.878906 42.8223 1.80664 46.2402 1.80664 Z"/>
  </g>
  <g id="Semibold-M" transform="matrix(1 0 0 1 1979.38 1126)">
   <path d="M 20.0195 -58.0566 C 24.1699 -58.0566 27.5391 -61.4746 27.5391 -65.625 C 27.5391 -69.7754 24.1699 -73.1934 20.0195 -73.1934 C 15.8203 -73.1934 12.4512 -69.7754 12.4512 -65.625 C 12.4512 -61.4746 15.8203 -58.0566 20.0195 -58.0566 Z M 44.043 -60.3516 L 110.01 -60.3516 C 112.988 -60.3516 115.332 -62.6465 115.332 -65.625 C 115.332 -68.5547 112.988 -70.8984 110.01 -70.8984 L 44.043 -70.8984 C 41.0645 -70.8984 38.7207 -68.6035 38.7207 -65.625 C 38.7207 -62.6465 41.0645 -60.3516 44.043 -60.3516 Z M 20.0195 -27.6367 C 24.1699 -27.6367 27.5391 -31.0547 27.5391 -35.2051 C 27.5391 -39.3555 24.1699 -42.7734 20.0195 -42.7734 C 15.8203 -42.7734 12.4512 -39.3555 12.4512 -35.2051 C 12.4512 -31.0547 15.8203 -27.6367 20.0195 -27.6367 Z M 44.043 -29.9316 L 110.01 -29.9316 C 112.988 -29.9316 115.332 -32.2266 115.332 -35.2051 C 115.332 -38.1348 112.988 -40.4785 110.01 -40.4785 L 44.043 -40.4785 C 41.0645 -40.4785 38.7207 -38.1836 38.7207 -35.2051 C 38.7207 -32.2266 41.0645 -29.9316 44.043 -29.9316 Z M 20.0195 2.7832 C 24.1699 2.7832 27.5391 -0.634766 27.5391 -4.78516 C 27.5391 -8.93555 24.1699 -12.3535 20.0195 -12.3535 C 15.8203 -12.3535 12.4512 -8.93555 12.4512 -4.78516 C 12.4512 -0.634766 15.8203 2.7832 20.0195 2.7832 Z M 44.043 0.488281 L 110.01 0.488281 C 112.988 0.488281 115.332 -1.80664 115.332 -4.78516 C 115.332 -7.71484 112.988 -10.0586 110.01 -10.0586 L 44.043 -10.0586 C 41.0645 -10.0586 38.7207 -7.76367 38.7207 -4.78516 C 38.7207 -1.80664 41.0645 0.488281 44.043 0.488281 Z"/>
  </g>
  <g id="Medium-M" transform="matrix(1 0 0 1 1683.64 1126)">
   <path d="M 19.3848 -58.3008 C 23.2422 -58.3008 26.3184 -61.377 26.3184 -65.2344 C 26.3184 -69.043 23.2422 -72.168 19.3848 -72.168 C 15.5762 -72.168 12.4512 -69.043 12.4512 -65.2344 C 12.4512 -61.377 15.5762 -58.3008 19.3848 -58.3008 Z M 42.334 -60.5469 L 108.643 -60.5469 C 111.279 -60.5469 113.379 -62.5977 113.379 -65.2344 C 113.379 -67.8711 111.328 -69.9219 108.643 -69.9219 L 42.334 -69.9219 C 39.7461 -69.9219 37.6465 -67.8711 37.6465 -65.2344 C 37.6465 -62.5977 39.6973 -60.5469 42.334 -60.5469 Z M 19.3848 -28.2715 C 23.2422 -28.2715 26.3184 -31.3477 26.3184 -35.2051 C 26.3184 -39.0137 23.2422 -42.1387 19.3848 -42.1387 C 15.5762 -42.1387 12.4512 -39.0137 12.4512 -35.2051 C 12.4512 -31.3477 15.5762 -28.2715 19.3848 -28.2715 Z M 42.334 -30.5176 L 108.643 -30.5176 C 111.279 -30.5176 113.379 -32.5684 113.379 -35.2051 C 113.379 -37.8418 111.328 -39.8926 108.643 -39.8926 L 42.334 -39.8926 C 39.7461 -39.8926 37.6465 -37.8418 37.6465 -35.2051 C 37.6465 -32.5684 39.6973 -30.5176 42.334 -30.5176 Z M 19.3848 1.75781 C 23.2422 1.75781 26.3184 -1.31836 26.3184 -5.17578 C 26.3184 -8.98438 23.2422 -12.1094 19.3848 -12.1094 C 15.5762 -12.1094 12.4512 -8.98438 12.4512 -5.17578 C 12.4512 -1.31836 15.5762 1.75781 19.3848 1.75781 Z M 42.334 -0.488281 L 108.643 -0.488281 C 111.279 -0.488281 113.379 -2.53906 113.379 -5.17578 C 113.379 -7.8125 111.328 -9.86328 108.643 -9.86328 L 42.334 -9.86328 C 39.7461 -9.86328 37.6465 -7.8125 37.6465 -5.17578 C 37.6465 -2.53906 39.6973 -0.488281 42.334 -0.488281 Z"/>
  </g>
  <g id="Regular-M" transform="matrix(1 0 0 1 1388.2 1126)">
   <path d="M 18.6035 -58.5938 C 22.0215 -58.5938 24.7559 -61.3281 24.7559 -64.6973 C 24.7559 -68.1152 22.0215 -70.8496 18.6035 -70.8496 C 15.1855 -70.8496 12.4512 -68.1152 12.4512 -64.6973 C 12.4512 -61.3281 15.1855 -58.5938 18.6035 -58.5938 Z M 40.1855 -60.791 L 106.885 -60.791 C 109.082 -60.791 110.84 -62.5 110.84 -64.6973 C 110.84 -66.9434 109.082 -68.6523 106.885 -68.6523 L 40.1855 -68.6523 C 37.9395 -68.6523 36.2305 -66.9434 36.2305 -64.6973 C 36.2305 -62.5 37.9395 -60.791 40.1855 -60.791 Z M 18.6035 -29.0527 C 22.0215 -29.0527 24.7559 -31.7871 24.7559 -35.2051 C 24.7559 -38.623 22.0215 -41.3574 18.6035 -41.3574 C 15.1855 -41.3574 12.4512 -38.623 12.4512 -35.2051 C 12.4512 -31.7871 15.1855 -29.0527 18.6035 -29.0527 Z M 40.1855 -31.25 L 106.885 -31.25 C 109.082 -31.25 110.84 -33.0078 110.84 -35.2051 C 110.84 -37.4023 109.082 -39.1113 106.885 -39.1113 L 40.1855 -39.1113 C 37.9395 -39.1113 36.2305 -37.4023 36.2305 -35.2051 C 36.2305 -33.0078 37.9395 -31.25 40.1855 -31.25 Z M 18.6035 0.488281 C 22.0215 0.488281 24.7559 -2.29492 24.7559 -5.66406 C 24.7559 -9.08203 22.0215 -11.8164 18.6035 -11.8164 C 15.1855 -11.8164 12.4512 -9.08203 12.4512 -5.66406 C 12.4512 -2.29492 15.1855 0.488281 18.6035 0.488281 Z M 40.1855 -1.75781 L 106.885 -1.75781 C 109.082 -1.75781 110.84 -3.4668 110.84 -5.66406 C 110.84 -7.91016 109.082 -9.61914 106.885 -9.61914 L 40.1855 -9.61914 C 37.9395 -9.61914 36.2305 -7.91016 36.2305 -5.66406 C 36.2305 -3.4668 37.9395 -1.75781 40.1855 -1.75781 Z"/>
  </g>
  <g id="Light-M" transform="matrix(1 0 0 1 1092.32 1126)">
   <path d="M 18.2617 -58.5938 C 21.4844 -58.5938 24.0723 -61.1816 24.0723 -64.4043 C 24.0723 -67.627 21.4844 -70.2148 18.2617 -70.2148 C 15.0391 -70.2148 12.4512 -67.627 12.4512 -64.4043 C 12.4512 -61.1816 15.0391 -58.5938 18.2617 -58.5938 Z M 39.0137 -61.377 L 106.152 -61.377 C 107.861 -61.377 109.18 -62.6953 109.18 -64.4043 C 109.18 -66.1133 107.861 -67.3828 106.152 -67.3828 L 39.0137 -67.3828 C 37.3047 -67.3828 35.9863 -66.1133 35.9863 -64.4043 C 35.9863 -62.6953 37.3047 -61.377 39.0137 -61.377 Z M 18.2617 -29.3945 C 21.4844 -29.3945 24.0723 -31.9824 24.0723 -35.2051 C 24.0723 -38.4277 21.4844 -41.0156 18.2617 -41.0156 C 15.0391 -41.0156 12.4512 -38.4277 12.4512 -35.2051 C 12.4512 -31.9824 15.0391 -29.3945 18.2617 -29.3945 Z M 39.0137 -32.1777 L 106.152 -32.1777 C 107.861 -32.1777 109.18 -33.4961 109.18 -35.2051 C 109.18 -36.9141 107.861 -38.2324 106.152 -38.2324 L 39.0137 -38.2324 C 37.3047 -38.2324 35.9863 -36.9141 35.9863 -35.2051 C 35.9863 -33.4961 37.3047 -32.1777 39.0137 -32.1777 Z M 18.2617 -0.195312 C 21.4844 -0.195312 24.0723 -2.7832 24.0723 -6.00586 C 24.0723 -9.22852 21.4844 -11.8164 18.2617 -11.8164 C 15.0391 -11.8164 12.4512 -9.22852 12.4512 -6.00586 C 12.4512 -2.7832 15.0391 -0.195312 18.2617 -0.195312 Z M 39.0137 -2.97852 L 106.152 -2.97852 C 107.861 -2.97852 109.18 -4.29688 109.18 -6.00586 C 109.18 -7.71484 107.861 -9.0332 106.152 -9.0332 L 39.0137 -9.0332 C 37.3047 -9.0332 35.9863 -7.71484 35.9863 -6.00586 C 35.9863 -4.29688 37.3047 -2.97852 39.0137 -2.97852 Z"/>
  </g>
  <g id="Thin-M" transform="matrix(1 0 0 1 796.705 1126)">
   <path d="M 17.8223 -58.5938 C 20.8008 -58.5938 23.1934 -60.9863 23.1934 -63.9648 C 23.1934 -66.9434 20.8008 -69.3359 17.8223 -69.3359 C 14.8438 -69.3359 12.4512 -66.9434 12.4512 -63.9648 C 12.4512 -60.9863 14.8438 -58.5938 17.8223 -58.5938 Z M 37.5 -62.1582 L 105.176 -62.1582 C 106.201 -62.1582 106.982 -62.8906 106.982 -63.9648 C 106.982 -64.9902 106.201 -65.7715 105.176 -65.7715 L 37.5 -65.7715 C 36.4258 -65.7715 35.6445 -64.9902 35.6445 -63.9648 C 35.6445 -62.8906 36.4258 -62.1582 37.5 -62.1582 Z M 17.8223 -29.834 C 20.8008 -29.834 23.1934 -32.2266 23.1934 -35.2051 C 23.1934 -38.1836 20.8008 -40.5762 17.8223 -40.5762 C 14.8438 -40.5762 12.4512 -38.1836 12.4512 -35.2051 C 12.4512 -32.2266 14.8438 -29.834 17.8223 -29.834 Z M 37.5 -33.3984 L 105.176 -33.3984 C 106.201 -33.3984 106.982 -34.1309 106.982 -35.2051 C 106.982 -36.2793 106.201 -37.0117 105.176 -37.0117 L 37.5 -37.0117 C 36.4258 -37.0117 35.6445 -36.2793 35.6445 -35.2051 C 35.6445 -34.1309 36.4258 -33.3984 37.5 -33.3984 Z M 17.8223 -1.07422 C 20.8008 -1.07422 23.1934 -3.4668 23.1934 -6.44531 C 23.1934 -9.42383 20.8008 -11.8164 17.8223 -11.8164 C 14.8438 -11.8164 12.4512 -9.42383 12.4512 -6.44531 C 12.4512 -3.4668 14.8438 -1.07422 17.8223 -1.07422 Z M 37.5 -4.63867 L 105.176 -4.63867 C 106.201 -4.63867 106.982 -5.37109 106.982 -6.44531 C 106.982 -7.51953 106.201 -8.25195 105.176 -8.25195 L 37.5 -8.25195 C 36.4258 -8.25195 35.6445 -7.51953 35.6445 -6.44531 C 35.6445 -5.37109 36.4258 -4.63867 37.5 -4.63867 Z"/>
  </g>
  <g id="Ultralight-M" transform="matrix(1 0 0 1 500.556 1126)">
   <path d="M 17.627 -58.5938 C 20.459 -58.5938 22.7539 -60.8887 22.7539 -63.7207 C 22.7539 -66.6016 20.459 -68.8965 17.627 -68.8965 C 14.7461 -68.8965 12.4512 -66.6016 12.4512 -63.7207 C 12.4512 -60.8887 14.7461 -58.5938 17.627 -58.5938 Z M 36.6699 -62.5488 L 104.639 -62.5488 C 105.371 -62.5488 105.859 -62.9883 105.859 -63.7207 C 105.859 -64.4531 105.371 -64.9414 104.639 -64.9414 L 36.6699 -64.9414 C 35.9863 -64.9414 35.498 -64.4531 35.498 -63.7207 C 35.498 -62.9883 35.9863 -62.5488 36.6699 -62.5488 Z M 17.627 -30.0293 C 20.459 -30.0293 22.7539 -32.3242 22.7539 -35.2051 C 22.7539 -38.0371 20.459 -40.332 17.627 -40.332 C 14.7461 -40.332 12.4512 -38.0371 12.4512 -35.2051 C 12.4512 -32.3242 14.7461 -30.0293 17.627 -30.0293 Z M 36.6699 -33.9844 L 104.639 -33.9844 C 105.371 -33.9844 105.859 -34.4727 105.859 -35.2051 C 105.859 -35.9375 105.371 -36.377 104.639 -36.377 L 36.6699 -36.377 C 35.9863 -36.377 35.498 -35.9375 35.498 -35.2051 C 35.498 -34.4727 35.9863 -33.9844 36.6699 -33.9844 Z M 17.627 -1.51367 C 20.459 -1.51367 22.7539 -3.80859 22.7539 -6.68945 C 22.7539 -9.52148 20.459 -11.8164 17.627 -11.8164 C 14.7461 -11.8164 12.4512 -9.52148 12.4512 -6.68945 C 12.4512 -3.80859 14.7461 -1.51367 17.627 -1.51367 Z M 36.6699 -5.46875 L 104.639 -5.46875 C 105.371 -5.46875 105.859 -5.95703 105.859 -6.68945 C 105.859 -7.37305 105.371 -7.86133 104.639 -7.86133 L 36.6699 -7.86133 C 35.9863 -7.86133 35.498 -7.37305 35.498 -6.68945 C 35.498 -5.95703 35.9863 -5.46875 36.6699 -5.46875 Z"/>
  </g>
  <g id="Black-S" transform="matrix(1 0 0 1 2879.69 696)">
   <path d="M 17.9688 -52.2949 C 22.4609 -52.2949 26.1719 -56.0059 26.1719 -60.498 C 26.1719 -64.9902 22.4609 -68.7012 17.9688 -68.7012 C 13.4766 -68.7012 9.76562 -64.9902 9.76562 -60.498 C 9.76562 -56.0059 13.4766 -52.2949 17.9688 -52.2949 Z M 40.7715 -54.1504 L 91.3086 -54.1504 C 94.8242 -54.1504 97.6562 -56.9336 97.6562 -60.498 C 97.6562 -64.0137 94.873 -66.8457 91.3086 -66.8457 L 40.7715 -66.8457 C 37.2559 -66.8457 34.4238 -64.0625 34.4238 -60.498 C 34.4238 -56.9824 37.207 -54.1504 40.7715 -54.1504 Z M 17.9688 -27.002 C 22.4609 -27.002 26.1719 -30.7129 26.1719 -35.2051 C 26.1719 -39.6973 22.4609 -43.4082 17.9688 -43.4082 C 13.4766 -43.4082 9.76562 -39.6973 9.76562 -35.2051 C 9.76562 -30.7129 13.4766 -27.002 17.9688 -27.002 Z M 40.7715 -28.8574 L 91.3086 -28.8574 C 94.8242 -28.8574 97.6562 -31.6406 97.6562 -35.2051 C 97.6562 -38.7207 94.873 -41.5527 91.3086 -41.5527 L 40.7715 -41.5527 C 37.2559 -41.5527 34.4238 -38.7695 34.4238 -35.2051 C 34.4238 -31.6895 37.207 -28.8574 40.7715 -28.8574 Z M 17.9688 -1.70898 C 22.4609 -1.70898 26.1719 -5.41992 26.1719 -9.91211 C 26.1719 -14.4043 22.4609 -18.1152 17.9688 -18.1152 C 13.4766 -18.1152 9.76562 -14.4043 9.76562 -9.91211 C 9.76562 -5.41992 13.4766 -1.70898 17.9688 -1.70898 Z M 40.7715 -3.56445 L 91.3086 -3.56445 C 94.8242 -3.56445 97.6562 -6.34766 97.6562 -9.91211 C 97.6562 -13.4277 94.873 -16.2598 91.3086 -16.2598 L 40.7715 -16.2598 C 37.2559 -16.2598 34.4238 -13.4766 34.4238 -9.91211 C 34.4238 -6.39648 37.207 -3.56445 40.7715 -3.56445 Z"/>
  </g>
  <g id="Heavy-S" transform="matrix(1 0 0 1 2584.15 696)">
   <path d="M 17.1875 -52.5879 C 21.2891 -52.5879 24.6582 -55.957 24.6582 -60.0098 C 24.6582 -64.1113 21.2891 -67.4805 17.1875 -67.4805 C 13.1348 -67.4805 9.76562 -64.1113 9.76562 -60.0098 C 9.76562 -55.957 13.1348 -52.5879 17.1875 -52.5879 Z M 38.7207 -54.3457 L 89.5996 -54.3457 C 92.7734 -54.3457 95.3125 -56.8359 95.3125 -60.0098 C 95.3125 -63.1836 92.8223 -65.7227 89.5996 -65.7227 L 38.7207 -65.7227 C 35.5469 -65.7227 33.0078 -63.2324 33.0078 -60.0098 C 33.0078 -56.8848 35.5469 -54.3457 38.7207 -54.3457 Z M 17.1875 -27.7832 C 21.2891 -27.7832 24.6582 -31.1035 24.6582 -35.2051 C 24.6582 -39.3066 21.2891 -42.627 17.1875 -42.627 C 13.1348 -42.627 9.76562 -39.3066 9.76562 -35.2051 C 9.76562 -31.1035 13.1348 -27.7832 17.1875 -27.7832 Z M 38.7207 -29.541 L 89.5996 -29.541 C 92.7734 -29.541 95.3125 -32.0312 95.3125 -35.2051 C 95.3125 -38.3789 92.8223 -40.8691 89.5996 -40.8691 L 38.7207 -40.8691 C 35.5469 -40.8691 33.0078 -38.3789 33.0078 -35.2051 C 33.0078 -32.0312 35.5469 -29.541 38.7207 -29.541 Z M 17.1875 -2.92969 C 21.2891 -2.92969 24.6582 -6.29883 24.6582 -10.4004 C 24.6582 -14.4531 21.2891 -17.8223 17.1875 -17.8223 C 13.1348 -17.8223 9.76562 -14.4531 9.76562 -10.4004 C 9.76562 -6.29883 13.1348 -2.92969 17.1875 -2.92969 Z M 38.7207 -4.6875 L 89.5996 -4.6875 C 92.7734 -4.6875 95.3125 -7.17773 95.3125 -10.4004 C 95.3125 -13.5254 92.8223 -16.0645 89.5996 -16.0645 L 38.7207 -16.0645 C 35.5469 -16.0645 33.0078 -13.5742 33.0078 -10.4004 C 33.0078 -7.22656 35.5469 -4.6875 38.7207 -4.6875 Z"/>
  </g>
  <g id="Bold-S" transform="matrix(1 0 0 1 2288.78 696)">
   <path d="M 16.3574 -52.9297 C 19.9707 -52.9297 22.9492 -55.8594 22.9492 -59.4727 C 22.9492 -63.1348 19.9707 -66.0645 16.3574 -66.0645 C 12.7441 -66.0645 9.76562 -63.1348 9.76562 -59.4727 C 9.76562 -55.8594 12.7441 -52.9297 16.3574 -52.9297 Z M 36.4258 -54.541 L 87.6953 -54.541 C 90.4785 -54.541 92.627 -56.7383 92.627 -59.4727 C 92.627 -62.2559 90.4785 -64.4531 87.6953 -64.4531 L 36.4258 -64.4531 C 33.6426 -64.4531 31.4941 -62.2559 31.4941 -59.4727 C 31.4941 -56.7383 33.6426 -54.541 36.4258 -54.541 Z M 16.3574 -28.6133 C 19.9707 -28.6133 22.9492 -31.5918 22.9492 -35.2051 C 22.9492 -38.8184 19.9707 -41.7969 16.3574 -41.7969 C 12.7441 -41.7969 9.76562 -38.8184 9.76562 -35.2051 C 9.76562 -31.5918 12.7441 -28.6133 16.3574 -28.6133 Z M 36.4258 -30.2734 L 87.6953 -30.2734 C 90.4785 -30.2734 92.627 -32.4219 92.627 -35.2051 C 92.627 -37.9395 90.4785 -40.1367 87.6953 -40.1367 L 36.4258 -40.1367 C 33.6426 -40.1367 31.4941 -37.9883 31.4941 -35.2051 C 31.4941 -32.4707 33.6426 -30.2734 36.4258 -30.2734 Z M 16.3574 -4.3457 C 19.9707 -4.3457 22.9492 -7.27539 22.9492 -10.9375 C 22.9492 -14.5508 19.9707 -17.5293 16.3574 -17.5293 C 12.7441 -17.5293 9.76562 -14.5508 9.76562 -10.9375 C 9.76562 -7.27539 12.7441 -4.3457 16.3574 -4.3457 Z M 36.4258 -5.95703 L 87.6953 -5.95703 C 90.4785 -5.95703 92.627 -8.1543 92.627 -10.9375 C 92.627 -13.6719 90.4785 -15.8691 87.6953 -15.8691 L 36.4258 -15.8691 C 33.6426 -15.8691 31.4941 -13.6719 31.4941 -10.9375 C 31.4941 -8.1543 33.6426 -5.95703 36.4258 -5.95703 Z"/>
  </g>
  <g id="Semibold-S" transform="matrix(1 0 0 1 1992.97 696)">
   <path d="M 15.7715 -53.125 C 19.0918 -53.125 21.7773 -55.8105 21.7773 -59.1309 C 21.7773 -62.4512 19.0918 -65.1367 15.7715 -65.1367 C 12.4512 -65.1367 9.76562 -62.4512 9.76562 -59.1309 C 9.76562 -55.8105 12.4512 -53.125 15.7715 -53.125 Z M 34.8145 -54.6875 L 86.377 -54.6875 C 88.8672 -54.6875 90.8203 -56.6406 90.8203 -59.1309 C 90.8203 -61.5723 88.8672 -63.5742 86.377 -63.5742 L 34.8145 -63.5742 C 32.373 -63.5742 30.4199 -61.6211 30.4199 -59.1309 C 30.4199 -56.6895 32.3242 -54.6875 34.8145 -54.6875 Z M 15.7715 -29.1992 C 19.0918 -29.1992 21.7773 -31.8848 21.7773 -35.2051 C 21.7773 -38.5254 19.0918 -41.2109 15.7715 -41.2109 C 12.4512 -41.2109 9.76562 -38.5254 9.76562 -35.2051 C 9.76562 -31.8848 12.4512 -29.1992 15.7715 -29.1992 Z M 34.8145 -30.7617 L 86.377 -30.7617 C 88.8672 -30.7617 90.8203 -32.7148 90.8203 -35.2051 C 90.8203 -37.6465 88.8672 -39.6484 86.377 -39.6484 L 34.8145 -39.6484 C 32.373 -39.6484 30.4199 -37.6953 30.4199 -35.2051 C 30.4199 -32.7637 32.3242 -30.7617 34.8145 -30.7617 Z M 15.7715 -5.27344 C 19.0918 -5.27344 21.7773 -7.95898 21.7773 -11.2793 C 21.7773 -14.5996 19.0918 -17.2852 15.7715 -17.2852 C 12.4512 -17.2852 9.76562 -14.5996 9.76562 -11.2793 C 9.76562 -7.95898 12.4512 -5.27344 15.7715 -5.27344 Z M 34.8145 -6.83594 L 86.377 -6.83594 C 88.8672 -6.83594 90.8203 -8.78906 90.8203 -11.2793 C 90.8203 -13.7207 88.8672 -15.7227 86.377 -15.7227 L 34.8145 -15.7227 C 32.373 -15.7227 30.4199 -13.7695 30.4199 -11.2793 C 30.4199 -8.83789 32.3242 -6.83594 34.8145 -6.83594 Z"/>
  </g>
  <g id="Medium-S" transform="matrix(1 0 0 1 1696.95 696)">
   <path d="M 15.332 -53.3203 C 18.4082 -53.3203 20.8984 -55.8105 20.8984 -58.8379 C 20.8984 -61.9141 18.4082 -64.4043 15.332 -64.4043 C 12.2559 -64.4043 9.76562 -61.9141 9.76562 -58.8379 C 9.76562 -55.8105 12.2559 -53.3203 15.332 -53.3203 Z M 33.5938 -54.834 L 85.4004 -54.834 C 87.6465 -54.834 89.4531 -56.5918 89.4531 -58.8379 C 89.4531 -61.084 87.6465 -62.8906 85.4004 -62.8906 L 33.5938 -62.8906 C 31.3477 -62.8906 29.5898 -61.1328 29.5898 -58.8379 C 29.5898 -56.5918 31.3477 -54.834 33.5938 -54.834 Z M 15.332 -29.6387 C 18.4082 -29.6387 20.8984 -32.1289 20.8984 -35.2051 C 20.8984 -38.2812 18.4082 -40.7715 15.332 -40.7715 C 12.2559 -40.7715 9.76562 -38.2812 9.76562 -35.2051 C 9.76562 -32.1289 12.2559 -29.6387 15.332 -29.6387 Z M 33.5938 -31.1523 L 85.4004 -31.1523 C 87.6465 -31.1523 89.4531 -32.959 89.4531 -35.2051 C 89.4531 -37.4512 87.6465 -39.2578 85.4004 -39.2578 L 33.5938 -39.2578 C 31.3477 -39.2578 29.5898 -37.4512 29.5898 -35.2051 C 29.5898 -32.959 31.3477 -31.1523 33.5938 -31.1523 Z M 15.332 -6.00586 C 18.4082 -6.00586 20.8984 -8.49609 20.8984 -11.5723 C 20.8984 -14.5996 18.4082 -17.1387 15.332 -17.1387 C 12.2559 -17.1387 9.76562 -14.5996 9.76562 -11.5723 C 9.76562 -8.49609 12.2559 -6.00586 15.332 -6.00586 Z M 33.5938 -7.51953 L 85.4004 -7.51953 C 87.6465 -7.51953 89.4531 -9.27734 89.4531 -11.5723 C 89.4531 -13.8184 87.6465 -15.5762 85.4004 -15.5762 L 33.5938 -15.5762 C 31.3477 -15.5762 29.5898 -13.8184 29.5898 -11.5723 C 29.5898 -9.32617 31.3477 -7.51953 33.5938 -7.51953 Z"/>
  </g>
  <g id="Regular-S" transform="matrix(1 0 0 1 1401.14 696)">
   <path d="M 14.7461 -53.5156 C 17.4805 -53.5156 19.7266 -55.7617 19.7266 -58.4961 C 19.7266 -61.2305 17.4805 -63.4766 14.7461 -63.4766 C 12.0117 -63.4766 9.76562 -61.2305 9.76562 -58.4961 C 9.76562 -55.7617 12.0117 -53.5156 14.7461 -53.5156 Z M 32.0312 -54.9805 L 84.1309 -54.9805 C 86.084 -54.9805 87.6465 -56.543 87.6465 -58.4961 C 87.6465 -60.4492 86.084 -62.0117 84.1309 -62.0117 L 32.0312 -62.0117 C 30.0781 -62.0117 28.5156 -60.4492 28.5156 -58.4961 C 28.5156 -56.543 30.0781 -54.9805 32.0312 -54.9805 Z M 14.7461 -30.2246 C 17.4805 -30.2246 19.7266 -32.4707 19.7266 -35.2051 C 19.7266 -37.9395 17.4805 -40.1855 14.7461 -40.1855 C 12.0117 -40.1855 9.76562 -37.9395 9.76562 -35.2051 C 9.76562 -32.4707 12.0117 -30.2246 14.7461 -30.2246 Z M 32.0312 -31.6895 L 84.1309 -31.6895 C 86.084 -31.6895 87.6465 -33.252 87.6465 -35.2051 C 87.6465 -37.1582 86.084 -38.7207 84.1309 -38.7207 L 32.0312 -38.7207 C 30.0781 -38.7207 28.5156 -37.1582 28.5156 -35.2051 C 28.5156 -33.252 30.0781 -31.6895 32.0312 -31.6895 Z M 14.7461 -6.93359 C 17.4805 -6.93359 19.7266 -9.17969 19.7266 -11.9141 C 19.7266 -14.6484 17.4805 -16.8945 14.7461 -16.8945 C 12.0117 -16.8945 9.76562 -14.6484 9.76562 -11.9141 C 9.76562 -9.17969 12.0117 -6.93359 14.7461 -6.93359 Z M 32.0312 -8.39844 L 84.1309 -8.39844 C 86.084 -8.39844 87.6465 -9.96094 87.6465 -11.9141 C 87.6465 -13.8672 86.084 -15.4297 84.1309 -15.4297 L 32.0312 -15.4297 C 30.0781 -15.4297 28.5156 -13.8672 28.5156 -11.9141 C 28.5156 -9.96094 30.0781 -8.39844 32.0312 -8.39844 Z"/>
  </g>
  <g id="Light-S" transform="matrix(1 0 0 1 1105.16 696)">
   <path d="M 14.4531 -53.5156 C 17.041 -53.5156 19.1406 -55.6152 19.1406 -58.2031 C 19.1406 -60.791 17.041 -62.8906 14.4531 -62.8906 C 11.8652 -62.8906 9.76562 -60.791 9.76562 -58.2031 C 9.76562 -55.6152 11.8652 -53.5156 14.4531 -53.5156 Z M 31.0059 -55.4688 L 83.4473 -55.4688 C 85.0098 -55.4688 86.1816 -56.6895 86.1816 -58.2031 C 86.1816 -59.7168 85.0098 -60.9375 83.4473 -60.9375 L 31.0059 -60.9375 C 29.4922 -60.9375 28.3203 -59.7168 28.3203 -58.2031 C 28.3203 -56.6895 29.4922 -55.4688 31.0059 -55.4688 Z M 14.4531 -30.5176 C 17.041 -30.5176 19.1406 -32.6172 19.1406 -35.2051 C 19.1406 -37.793 17.041 -39.8926 14.4531 -39.8926 C 11.8652 -39.8926 9.76562 -37.793 9.76562 -35.2051 C 9.76562 -32.6172 11.8652 -30.5176 14.4531 -30.5176 Z M 31.0059 -32.4707 L 83.4473 -32.4707 C 85.0098 -32.4707 86.1816 -33.6914 86.1816 -35.2051 C 86.1816 -36.7188 85.0098 -37.9395 83.4473 -37.9395 L 31.0059 -37.9395 C 29.4922 -37.9395 28.3203 -36.7188 28.3203 -35.2051 C 28.3203 -33.6914 29.4922 -32.4707 31.0059 -32.4707 Z M 14.4531 -7.51953 C 17.041 -7.51953 19.1406 -9.61914 19.1406 -12.207 C 19.1406 -14.7949 17.041 -16.8945 14.4531 -16.8945 C 11.8652 -16.8945 9.76562 -14.7949 9.76562 -12.207 C 9.76562 -9.61914 11.8652 -7.51953 14.4531 -7.51953 Z M 31.0059 -9.47266 L 83.4473 -9.47266 C 85.0098 -9.47266 86.1816 -10.6934 86.1816 -12.207 C 86.1816 -13.7207 85.0098 -14.9414 83.4473 -14.9414 L 31.0059 -14.9414 C 29.4922 -14.9414 28.3203 -13.7207 28.3203 -12.207 C 28.3203 -10.6934 29.4922 -9.47266 31.0059 -9.47266 Z"/>
  </g>
  <g id="Thin-S" transform="matrix(1 0 0 1 809.425 696)">
   <path d="M 14.0625 -53.5156 C 16.4551 -53.5156 18.3594 -55.4199 18.3594 -57.8125 C 18.3594 -60.2051 16.4551 -62.1094 14.0625 -62.1094 C 11.6699 -62.1094 9.76562 -60.2051 9.76562 -57.8125 C 9.76562 -55.4199 11.6699 -53.5156 14.0625 -53.5156 Z M 29.6875 -56.1523 L 82.5684 -56.1523 C 83.5449 -56.1523 84.2285 -56.8359 84.2285 -57.8125 C 84.2285 -58.7891 83.5449 -59.4727 82.5684 -59.4727 L 29.6875 -59.4727 C 28.7109 -59.4727 28.0273 -58.7891 28.0273 -57.8125 C 28.0273 -56.8359 28.7109 -56.1523 29.6875 -56.1523 Z M 14.0625 -30.9082 C 16.4551 -30.9082 18.3594 -32.8125 18.3594 -35.2051 C 18.3594 -37.5977 16.4551 -39.502 14.0625 -39.502 C 11.6699 -39.502 9.76562 -37.5977 9.76562 -35.2051 C 9.76562 -32.8125 11.6699 -30.9082 14.0625 -30.9082 Z M 29.6875 -33.5449 L 82.5684 -33.5449 C 83.5449 -33.5449 84.2285 -34.2285 84.2285 -35.2051 C 84.2285 -36.1816 83.5449 -36.8652 82.5684 -36.8652 L 29.6875 -36.8652 C 28.7109 -36.8652 28.0273 -36.1816 28.0273 -35.2051 C 28.0273 -34.2285 28.7109 -33.5449 29.6875 -33.5449 Z M 14.0625 -8.30078 C 16.4551 -8.30078 18.3594 -10.2051 18.3594 -12.5977 C 18.3594 -14.9902 16.4551 -16.8945 14.0625 -16.8945 C 11.6699 -16.8945 9.76562 -14.9902 9.76562 -12.5977 C 9.76562 -10.2051 11.6699 -8.30078 14.0625 -8.30078 Z M 29.6875 -10.9375 L 82.5684 -10.9375 C 83.5449 -10.9375 84.2285 -11.6211 84.2285 -12.5977 C 84.2285 -13.5742 83.5449 -14.2578 82.5684 -14.2578 L 29.6875 -14.2578 C 28.7109 -14.2578 28.0273 -13.5742 28.0273 -12.5977 C 28.0273 -11.6211 28.7109 -10.9375 29.6875 -10.9375 Z"/>
  </g>
  <g id="Ultralight-S" transform="matrix(1 0 0 1 513.202 696)">
   <path d="M 13.8672 -53.5156 C 16.1133 -53.5156 17.9688 -55.3223 17.9688 -57.6172 C 17.9688 -59.8633 16.1133 -61.7188 13.8672 -61.7188 C 11.5723 -61.7188 9.76562 -59.8633 9.76562 -57.6172 C 9.76562 -55.3223 11.5723 -53.5156 13.8672 -53.5156 Z M 28.9551 -56.4941 L 82.1289 -56.4941 C 82.8125 -56.4941 83.252 -56.9824 83.252 -57.6172 C 83.252 -58.252 82.8125 -58.7402 82.1289 -58.7402 L 28.9551 -58.7402 C 28.3203 -58.7402 27.8809 -58.252 27.8809 -57.6172 C 27.8809 -56.9824 28.3203 -56.4941 28.9551 -56.4941 Z M 13.8672 -31.1035 C 16.1133 -31.1035 17.9688 -32.9102 17.9688 -35.2051 C 17.9688 -37.5 16.1133 -39.3066 13.8672 -39.3066 C 11.5723 -39.3066 9.76562 -37.5 9.76562 -35.2051 C 9.76562 -32.9102 11.5723 -31.1035 13.8672 -31.1035 Z M 28.9551 -34.082 L 82.1289 -34.082 C 82.8125 -34.082 83.252 -34.5703 83.252 -35.2051 C 83.252 -35.8398 82.8125 -36.3281 82.1289 -36.3281 L 28.9551 -36.3281 C 28.3203 -36.3281 27.8809 -35.8398 27.8809 -35.2051 C 27.8809 -34.5703 28.3203 -34.082 28.9551 -34.082 Z M 13.8672 -8.69141 C 16.1133 -8.69141 17.9688 -10.5469 17.9688 -12.793 C 17.9688 -15.0879 16.1133 -16.8945 13.8672 -16.8945 C 11.5723 -16.8945 9.76562 -15.0879 9.76562 -12.793 C 9.76562 -10.5469 11.5723 -8.69141 13.8672 -8.69141 Z M 28.9551 -11.6699 L 82.1289 -11.6699 C 82.8125 -11.6699 83.252 -12.1582 83.252 -12.793 C 83.252 -13.4277 82.8125 -13.916 82.1289 -13.916 L 28.9551 -13.916 C 28.3203 -13.916 27.8809 -13.4277 27.8809 -12.793 C 27.8809 -12.1582 28.3203 -11.6699 28.9551 -11.6699 Z"/>
  </g>
 </g>
</svg>
