<?xml version="1.0" encoding="UTF-8"?>
<!--Generator: Apple Native CoreSVG 123-->
<!DOCTYPE svg
PUBLIC "-//W3C//DTD SVG 1.1//EN"
       "http://www.w3.org/Graphics/SVG/1.1/DTD/svg11.dtd">
<svg version="1.1" xmlns="http://www.w3.org/2000/svg" xmlns:xlink="http://www.w3.org/1999/xlink" width="3300" height="2200">
 <!--glyph: "uni1002C2.medium", point size: 100.000000, font version: "Version 15.0d7e11", template writer version: "5"-->
 <g id="Notes">
  <rect height="2200" id="artboard" style="fill:white;opacity:1" width="3300" x="0" y="0"/>
  <line id="" style="fill:none;stroke:black;opacity:1;stroke-width:0.5;" x1="263" x2="3036" y1="292" y2="292"/>
  <text style="stroke:none;fill:black;font-family:-apple-system,&quot;SF Pro Display&quot;,&quot;SF Pro Text&quot;,Helvetica,sans-serif;font-weight:bold;" transform="matrix(1 0 0 1 263 322)">Weight/Scale Variations</text>
  <text style="stroke:none;fill:black;font-family:-apple-system,&quot;SF Pro Display&quot;,&quot;SF Pro Text&quot;,Helvetica,sans-serif;text-anchor:middle;" transform="matrix(1 0 0 1 559.711 322)">Ultralight</text>
  <text style="stroke:none;fill:black;font-family:-apple-system,&quot;SF Pro Display&quot;,&quot;SF Pro Text&quot;,Helvetica,sans-serif;text-anchor:middle;" transform="matrix(1 0 0 1 856.422 322)">Thin</text>
  <text style="stroke:none;fill:black;font-family:-apple-system,&quot;SF Pro Display&quot;,&quot;SF Pro Text&quot;,Helvetica,sans-serif;text-anchor:middle;" transform="matrix(1 0 0 1 1153.13 322)">Light</text>
  <text style="stroke:none;fill:black;font-family:-apple-system,&quot;SF Pro Display&quot;,&quot;SF Pro Text&quot;,Helvetica,sans-serif;text-anchor:middle;" transform="matrix(1 0 0 1 1449.84 322)">Regular</text>
  <text style="stroke:none;fill:black;font-family:-apple-system,&quot;SF Pro Display&quot;,&quot;SF Pro Text&quot;,Helvetica,sans-serif;text-anchor:middle;" transform="matrix(1 0 0 1 1746.56 322)">Medium</text>
  <text style="stroke:none;fill:black;font-family:-apple-system,&quot;SF Pro Display&quot;,&quot;SF Pro Text&quot;,Helvetica,sans-serif;text-anchor:middle;" transform="matrix(1 0 0 1 2043.27 322)">Semibold</text>
  <text style="stroke:none;fill:black;font-family:-apple-system,&quot;SF Pro Display&quot;,&quot;SF Pro Text&quot;,Helvetica,sans-serif;text-anchor:middle;" transform="matrix(1 0 0 1 2339.98 322)">Bold</text>
  <text style="stroke:none;fill:black;font-family:-apple-system,&quot;SF Pro Display&quot;,&quot;SF Pro Text&quot;,Helvetica,sans-serif;text-anchor:middle;" transform="matrix(1 0 0 1 2636.69 322)">Heavy</text>
  <text style="stroke:none;fill:black;font-family:-apple-system,&quot;SF Pro Display&quot;,&quot;SF Pro Text&quot;,Helvetica,sans-serif;text-anchor:middle;" transform="matrix(1 0 0 1 2933.4 322)">Black</text>
  <line id="" style="fill:none;stroke:black;opacity:1;stroke-width:0.5;" x1="263" x2="3036" y1="1903" y2="1903"/>
  <g id="" transform="matrix(1 0 0 1 263 1933)">
   <path d="M 9.24805 0.830078 C 13.5547 0.830078 17.1387 -2.74414 17.1387 -7.05078 C 17.1387 -11.3574 13.5449 -14.9316 9.23828 -14.9316 C 4.94141 -14.9316 1.36719 -11.3574 1.36719 -7.05078 C 1.36719 -2.74414 4.95117 0.830078 9.24805 0.830078 Z M 9.24805 -0.654297 C 5.70312 -0.654297 2.87109 -3.49609 2.87109 -7.05078 C 2.87109 -10.6055 5.69336 -13.4473 9.23828 -13.4473 C 12.793 -13.4473 15.6348 -10.6055 15.6445 -7.05078 C 15.6543 -3.49609 12.8027 -0.654297 9.24805 -0.654297 Z M 9.22852 -3.42773 C 9.69727 -3.42773 9.9707 -3.74023 9.9707 -4.25781 L 9.9707 -6.31836 L 12.1973 -6.31836 C 12.6953 -6.31836 13.0371 -6.57227 13.0371 -7.04102 C 13.0371 -7.51953 12.7148 -7.7832 12.1973 -7.7832 L 9.9707 -7.7832 L 9.9707 -10.0098 C 9.9707 -10.5273 9.69727 -10.8496 9.22852 -10.8496 C 8.75977 -10.8496 8.50586 -10.5078 8.50586 -10.0098 L 8.50586 -7.7832 L 6.29883 -7.7832 C 5.78125 -7.7832 5.44922 -7.51953 5.44922 -7.04102 C 5.44922 -6.57227 5.80078 -6.31836 6.29883 -6.31836 L 8.50586 -6.31836 L 8.50586 -4.25781 C 8.50586 -3.75977 8.75977 -3.42773 9.22852 -3.42773 Z"/>
  </g>
  <g id="" transform="matrix(1 0 0 1 281.506 1933)">
   <path d="M 11.709 2.91016 C 17.1582 2.91016 21.6699 -1.60156 21.6699 -7.05078 C 21.6699 -12.4902 17.1484 -17.0117 11.6992 -17.0117 C 6.25977 -17.0117 1.74805 -12.4902 1.74805 -7.05078 C 1.74805 -1.60156 6.26953 2.91016 11.709 2.91016 Z M 11.709 1.25 C 7.09961 1.25 3.41797 -2.44141 3.41797 -7.05078 C 3.41797 -11.6504 7.08984 -15.3516 11.6992 -15.3516 C 16.3086 -15.3516 20 -11.6504 20.0098 -7.05078 C 20.0195 -2.44141 16.3184 1.25 11.709 1.25 Z M 11.6895 -2.41211 C 12.207 -2.41211 12.5195 -2.77344 12.5195 -3.33984 L 12.5195 -6.23047 L 15.5762 -6.23047 C 16.123 -6.23047 16.5039 -6.51367 16.5039 -7.03125 C 16.5039 -7.55859 16.1426 -7.86133 15.5762 -7.86133 L 12.5195 -7.86133 L 12.5195 -10.9277 C 12.5195 -11.5039 12.207 -11.8555 11.6895 -11.8555 C 11.1719 -11.8555 10.8789 -11.4844 10.8789 -10.9277 L 10.8789 -7.86133 L 7.83203 -7.86133 C 7.26562 -7.86133 6.89453 -7.55859 6.89453 -7.03125 C 6.89453 -6.51367 7.28516 -6.23047 7.83203 -6.23047 L 10.8789 -6.23047 L 10.8789 -3.33984 C 10.8789 -2.79297 11.1719 -2.41211 11.6895 -2.41211 Z"/>
  </g>
  <g id="" transform="matrix(1 0 0 1 304.924 1933)">
   <path d="M 14.9707 5.67383 C 21.9336 5.67383 27.6953 -0.078125 27.6953 -7.04102 C 27.6953 -14.0039 21.9238 -19.7559 14.9609 -19.7559 C 8.00781 -19.7559 2.25586 -14.0039 2.25586 -7.04102 C 2.25586 -0.078125 8.01758 5.67383 14.9707 5.67383 Z M 14.9707 3.85742 C 8.93555 3.85742 4.08203 -1.00586 4.08203 -7.04102 C 4.08203 -13.0762 8.92578 -17.9395 14.9609 -17.9395 C 21.0059 -17.9395 25.8594 -13.0762 25.8691 -7.04102 C 25.8789 -1.00586 21.0156 3.85742 14.9707 3.85742 Z M 14.9512 -1.06445 C 15.5176 -1.06445 15.8691 -1.45508 15.8691 -2.06055 L 15.8691 -6.13281 L 20.1074 -6.13281 C 20.6934 -6.13281 21.1133 -6.46484 21.1133 -7.02148 C 21.1133 -7.59766 20.7227 -7.93945 20.1074 -7.93945 L 15.8691 -7.93945 L 15.8691 -12.1875 C 15.8691 -12.8027 15.5176 -13.1934 14.9512 -13.1934 C 14.3848 -13.1934 14.0625 -12.7832 14.0625 -12.1875 L 14.0625 -7.93945 L 9.83398 -7.93945 C 9.21875 -7.93945 8.80859 -7.59766 8.80859 -7.02148 C 8.80859 -6.46484 9.23828 -6.13281 9.83398 -6.13281 L 14.0625 -6.13281 L 14.0625 -2.06055 C 14.0625 -1.47461 14.3848 -1.06445 14.9512 -1.06445 Z"/>
  </g>
  <text style="stroke:none;fill:black;font-family:-apple-system,&quot;SF Pro Display&quot;,&quot;SF Pro Text&quot;,Helvetica,sans-serif;font-weight:bold;" transform="matrix(1 0 0 1 263 1953)">Design Variations</text>
  <text style="stroke:none;fill:black;font-family:-apple-system,&quot;SF Pro Display&quot;,&quot;SF Pro Text&quot;,Helvetica,sans-serif;" transform="matrix(1 0 0 1 263 1971)">Symbols are supported in up to nine weights and three scales.</text>
  <text style="stroke:none;fill:black;font-family:-apple-system,&quot;SF Pro Display&quot;,&quot;SF Pro Text&quot;,Helvetica,sans-serif;" transform="matrix(1 0 0 1 263 1989)">For optimal layout with text and other symbols, vertically align</text>
  <text style="stroke:none;fill:black;font-family:-apple-system,&quot;SF Pro Display&quot;,&quot;SF Pro Text&quot;,Helvetica,sans-serif;" transform="matrix(1 0 0 1 263 2007)">symbols with the adjacent text.</text>
  <rect height="14" id="" style="fill:#00AEEF;stroke:none;opacity:0.4;" width="3" x="776" y="1919"/>
  <g id="" transform="matrix(1 0 0 1 779 1933)">
   <path d="M 10.5273 0 L 12.373 0 L 7.17773 -14.0918 L 5.43945 -14.0918 L 0.244141 0 L 2.08984 0 L 3.50586 -4.0332 L 9.11133 -4.0332 Z M 6.2793 -11.9531 L 6.33789 -11.9531 L 8.59375 -5.52734 L 4.02344 -5.52734 Z"/>
  </g>
  <rect height="14" id="" style="fill:#00AEEF;stroke:none;opacity:0.4;" width="3" x="791.617" y="1919"/>
  <text style="stroke:none;fill:black;font-family:-apple-system,&quot;SF Pro Display&quot;,&quot;SF Pro Text&quot;,Helvetica,sans-serif;font-weight:bold;" transform="matrix(1 0 0 1 776 1953)">Margins</text>
  <text style="stroke:none;fill:black;font-family:-apple-system,&quot;SF Pro Display&quot;,&quot;SF Pro Text&quot;,Helvetica,sans-serif;" transform="matrix(1 0 0 1 776 1971)">Leading and trailing margins on the left and right side of each symbol</text>
  <text style="stroke:none;fill:black;font-family:-apple-system,&quot;SF Pro Display&quot;,&quot;SF Pro Text&quot;,Helvetica,sans-serif;" transform="matrix(1 0 0 1 776 1989)">can be adjusted by modifying the width of the blue rectangles.</text>
  <text style="stroke:none;fill:black;font-family:-apple-system,&quot;SF Pro Display&quot;,&quot;SF Pro Text&quot;,Helvetica,sans-serif;" transform="matrix(1 0 0 1 776 2007)">Modifications are automatically applied proportionally to all</text>
  <text style="stroke:none;fill:black;font-family:-apple-system,&quot;SF Pro Display&quot;,&quot;SF Pro Text&quot;,Helvetica,sans-serif;" transform="matrix(1 0 0 1 776 2025)">scales and weights.</text>
  <g id="" transform="matrix(1 0 0 1 1289 1933)">
   <path d="M 2.83203 3.11523 L 4.375 4.6582 C 5.22461 5.48828 6.19141 5.41992 7.06055 4.46289 L 17.2754 -6.66016 C 17.7051 -6.36719 18.0957 -6.37695 18.5645 -6.47461 L 19.6094 -6.68945 L 20.3027 -5.99609 L 20.2539 -5.47852 C 20.1855 -4.95117 20.3516 -4.53125 20.8496 -4.0332 L 21.6602 -3.22266 C 22.168 -2.71484 22.8223 -2.68555 23.3008 -3.16406 L 26.5527 -6.41602 C 27.0312 -6.89453 27.0117 -7.54883 26.5039 -8.05664 L 25.6836 -8.87695 C 25.1855 -9.375 24.7754 -9.55078 24.2383 -9.47266 L 23.7109 -9.41406 L 23.0566 -10.0781 L 23.3398 -11.2207 C 23.4863 -11.7871 23.3398 -12.2559 22.7148 -12.8613 L 20.3027 -15.2539 C 16.7578 -18.7793 12.2266 -18.6719 9.11133 -15.5371 C 8.69141 -15.1074 8.64258 -14.5215 8.91602 -14.0918 C 9.15039 -13.7207 9.62891 -13.4961 10.2734 -13.6621 C 11.7871 -14.043 13.3008 -13.9258 14.7852 -12.9199 L 14.1602 -11.3379 C 13.9258 -10.752 13.9453 -10.2734 14.1797 -9.83398 L 3.01758 0.439453 C 2.08008 1.30859 1.97266 2.25586 2.83203 3.11523 Z M 10.6738 -15.1465 C 13.3398 -17.1387 16.6504 -16.8262 19.0527 -14.4141 L 21.6797 -11.8066 C 21.9141 -11.5723 21.9434 -11.3867 21.8848 -11.0938 L 21.5039 -9.53125 L 23.0762 -7.95898 L 24.043 -8.04688 C 24.3262 -8.07617 24.4141 -8.05664 24.6387 -7.83203 L 25.2637 -7.20703 L 22.5098 -4.46289 L 21.8848 -5.07812 C 21.6602 -5.30273 21.6406 -5.40039 21.6699 -5.68359 L 21.7578 -6.64062 L 20.1953 -8.20312 L 18.5742 -7.89062 C 18.291 -7.83203 18.1445 -7.83203 17.9102 -8.07617 L 15.7324 -10.2539 C 15.5078 -10.4883 15.4785 -10.625 15.6055 -10.9473 L 16.5527 -13.2227 C 14.9512 -14.7559 12.8418 -15.6055 10.8008 -14.9512 C 10.7129 -14.9219 10.6445 -14.9414 10.6152 -14.9805 C 10.5859 -15.0293 10.5859 -15.0781 10.6738 -15.1465 Z M 4.10156 2.41211 C 3.61328 1.91406 3.78906 1.61133 4.12109 1.30859 L 15.0781 -8.80859 L 16.3086 -7.57812 L 6.15234 3.34961 C 5.84961 3.68164 5.46875 3.7793 5.06836 3.37891 Z"/>
  </g>
  <text style="stroke:none;fill:black;font-family:-apple-system,&quot;SF Pro Display&quot;,&quot;SF Pro Text&quot;,Helvetica,sans-serif;font-weight:bold;" transform="matrix(1 0 0 1 1289 1953)">Exporting</text>
  <text style="stroke:none;fill:black;font-family:-apple-system,&quot;SF Pro Display&quot;,&quot;SF Pro Text&quot;,Helvetica,sans-serif;" transform="matrix(1 0 0 1 1289 1971)">Symbols should be outlined when exporting to ensure the</text>
  <text style="stroke:none;fill:black;font-family:-apple-system,&quot;SF Pro Display&quot;,&quot;SF Pro Text&quot;,Helvetica,sans-serif;" transform="matrix(1 0 0 1 1289 1989)">design is preserved when submitting to Xcode.</text>
  <text id="template-version" style="stroke:none;fill:black;font-family:-apple-system,&quot;SF Pro Display&quot;,&quot;SF Pro Text&quot;,Helvetica,sans-serif;text-anchor:end;" transform="matrix(1 0 0 1 3036 1933)">Template v.1.0</text>
  <text style="stroke:none;fill:black;font-family:-apple-system,&quot;SF Pro Display&quot;,&quot;SF Pro Text&quot;,Helvetica,sans-serif;text-anchor:end;" transform="matrix(1 0 0 1 3036 1951)">Generated from star</text>
  <text style="stroke:none;fill:black;font-family:-apple-system,&quot;SF Pro Display&quot;,&quot;SF Pro Text&quot;,Helvetica,sans-serif;text-anchor:end;" transform="matrix(1 0 0 1 3036 1969)">Typeset at 100 points</text>
  <text style="stroke:none;fill:black;font-family:-apple-system,&quot;SF Pro Display&quot;,&quot;SF Pro Text&quot;,Helvetica,sans-serif;" transform="matrix(1 0 0 1 263 726)">Small</text>
  <text style="stroke:none;fill:black;font-family:-apple-system,&quot;SF Pro Display&quot;,&quot;SF Pro Text&quot;,Helvetica,sans-serif;" transform="matrix(1 0 0 1 263 1156)">Medium</text>
  <text style="stroke:none;fill:black;font-family:-apple-system,&quot;SF Pro Display&quot;,&quot;SF Pro Text&quot;,Helvetica,sans-serif;" transform="matrix(1 0 0 1 263 1586)">Large</text>
 </g>
 <g id="Guides">
  <g id="H-reference" style="fill:#27AAE1;stroke:none;" transform="matrix(1 0 0 1 339 696)">
   <path d="M 54.9316 0 L 57.666 0 L 30.5664 -70.459 L 28.0762 -70.459 L 0.976562 0 L 3.66211 0 L 12.9395 -24.4629 L 45.7031 -24.4629 Z M 29.1992 -67.0898 L 29.4434 -67.0898 L 44.8242 -26.709 L 13.8184 -26.709 Z"/>
  </g>
  <line id="Baseline-S" style="fill:none;stroke:#27AAE1;opacity:1;stroke-width:0.577;" x1="263" x2="3036" y1="696" y2="696"/>
  <line id="Capline-S" style="fill:none;stroke:#27AAE1;opacity:1;stroke-width:0.577;" x1="263" x2="3036" y1="625.541" y2="625.541"/>
  <g id="H-reference" style="fill:#27AAE1;stroke:none;" transform="matrix(1 0 0 1 339 1126)">
   <path d="M 54.9316 0 L 57.666 0 L 30.5664 -70.459 L 28.0762 -70.459 L 0.976562 0 L 3.66211 0 L 12.9395 -24.4629 L 45.7031 -24.4629 Z M 29.1992 -67.0898 L 29.4434 -67.0898 L 44.8242 -26.709 L 13.8184 -26.709 Z"/>
  </g>
  <line id="Baseline-M" style="fill:none;stroke:#27AAE1;opacity:1;stroke-width:0.577;" x1="263" x2="3036" y1="1126" y2="1126"/>
  <line id="Capline-M" style="fill:none;stroke:#27AAE1;opacity:1;stroke-width:0.577;" x1="263" x2="3036" y1="1055.54" y2="1055.54"/>
  <g id="H-reference" style="fill:#27AAE1;stroke:none;" transform="matrix(1 0 0 1 339 1556)">
   <path d="M 54.9316 0 L 57.666 0 L 30.5664 -70.459 L 28.0762 -70.459 L 0.976562 0 L 3.66211 0 L 12.9395 -24.4629 L 45.7031 -24.4629 Z M 29.1992 -67.0898 L 29.4434 -67.0898 L 44.8242 -26.709 L 13.8184 -26.709 Z"/>
  </g>
  <line id="Baseline-L" style="fill:none;stroke:#27AAE1;opacity:1;stroke-width:0.577;" x1="263" x2="3036" y1="1556" y2="1556"/>
  <line id="Capline-L" style="fill:none;stroke:#27AAE1;opacity:1;stroke-width:0.577;" x1="263" x2="3036" y1="1485.54" y2="1485.54"/>
  <rect height="119.336" id="left-margin" style="fill:#00AEEF;stroke:none;opacity:0.4;" width="9.95624" x="1385.66" y="1030.79"/>
  <rect height="119.336" id="right-margin" style="fill:#00AEEF;stroke:none;opacity:0.4;" width="9.97495" x="1504.05" y="1030.79"/>
 </g>
 <g id="Symbols">
  <g id="Black-L" transform="matrix(1 0 0 1 2846.24 1556)">
   <path d="M 41.4062 33.3008 C 45.7031 36.5723 50.9277 35.6445 56.4941 31.543 L 87.1582 8.98438 L 117.822 31.543 C 123.438 35.6445 128.662 36.5723 132.959 33.3008 C 137.158 30.127 137.988 24.8535 135.84 18.5059 L 123.633 -17.4805 L 154.59 -39.6484 C 160.107 -43.6035 162.646 -48.291 160.889 -53.3691 C 159.18 -58.4473 154.443 -60.8398 147.656 -60.7422 L 109.766 -60.4492 L 98.2422 -96.7285 C 96.1426 -103.271 92.4805 -106.982 87.1582 -106.982 C 81.8848 -106.982 78.2227 -103.271 76.123 -96.7285 L 64.5996 -60.4492 L 26.6113 -60.7422 C 19.9219 -60.8398 15.1855 -58.4473 13.4766 -53.4668 C 11.6699 -48.291 14.2578 -43.6035 19.7754 -39.6484 L 50.7324 -17.4805 L 38.5254 18.5059 C 36.377 24.8535 37.207 30.127 41.4062 33.3008 Z M 59.6191 8.34961 C 59.5215 8.25195 59.4727 8.20312 59.5703 7.91016 L 69.5312 -18.0664 C 71.3867 -23.2422 71.3867 -25.0977 66.3086 -28.3691 L 43.0176 -43.6523 C 42.8223 -43.75 42.7246 -43.8965 42.7734 -43.9941 C 42.7734 -44.0918 42.9199 -44.1406 43.2129 -44.1406 L 70.9473 -42.7734 C 76.4648 -42.627 78.3203 -43.6035 79.7363 -48.9746 L 86.9141 -75.8301 C 87.0117 -76.0742 87.0605 -76.1719 87.1582 -76.1719 C 87.3047 -76.1719 87.3535 -76.0742 87.4512 -75.8301 L 94.6289 -48.9746 C 96.0449 -43.6035 97.9004 -42.627 103.467 -42.7734 L 131.25 -44.1406 C 131.494 -44.1406 131.641 -44.0918 131.641 -43.9941 C 131.689 -43.8965 131.592 -43.7988 131.396 -43.6523 L 108.057 -28.3203 C 103.027 -25.0488 102.979 -23.2422 104.834 -18.0664 L 114.795 7.91016 C 114.893 8.20312 114.795 8.25195 114.746 8.34961 C 114.648 8.44727 114.551 8.39844 114.355 8.30078 L 92.7246 -9.27734 C 88.2324 -12.7441 86.1328 -12.7441 81.6406 -9.27734 L 60.0098 8.30078 C 59.8145 8.39844 59.7168 8.44727 59.6191 8.34961 Z"/>
  </g>
  <g id="Heavy-L" transform="matrix(1 0 0 1 2550.75 1556)">
   <path d="M 40.918 32.373 C 44.7754 35.2539 49.4141 34.4238 54.4922 30.7129 L 85.9375 7.56836 L 117.383 30.7129 C 122.461 34.4238 127.148 35.2539 130.957 32.373 C 134.717 29.541 135.498 24.8047 133.496 18.9941 L 121.045 -17.9199 L 152.783 -40.6738 C 157.812 -44.2383 160.059 -48.4863 158.545 -53.0273 C 156.982 -57.5195 152.783 -59.668 146.582 -59.5703 L 107.715 -59.2773 L 95.8984 -96.4844 C 93.9453 -102.441 90.6738 -105.762 85.9375 -105.762 C 81.25 -105.762 77.9297 -102.441 76.0254 -96.4844 L 64.209 -59.2773 L 25.293 -59.5703 C 19.1406 -59.668 14.8926 -57.5195 13.3789 -53.0273 C 11.8164 -48.4863 14.0625 -44.2383 19.1406 -40.6738 L 50.8789 -17.9199 L 38.4277 18.9941 C 36.4258 24.8047 37.207 29.541 40.918 32.373 Z M 56.6406 10.8398 C 56.543 10.6934 56.4941 10.6445 56.5918 10.3516 L 67.2363 -18.3105 C 68.8477 -22.8027 68.7012 -24.6582 64.3555 -27.4902 L 38.916 -44.4824 C 38.7207 -44.6289 38.623 -44.7266 38.6719 -44.873 C 38.6719 -45.0195 38.8184 -45.0195 39.1602 -45.0195 L 69.6777 -43.8477 C 74.4629 -43.75 76.2207 -44.7266 77.4414 -49.3652 L 85.6445 -78.7598 C 85.7422 -79.1016 85.8398 -79.1992 85.9375 -79.1992 C 86.084 -79.1992 86.1816 -79.1016 86.2305 -78.7598 L 94.4336 -49.3652 C 95.7031 -44.7266 97.4609 -43.75 102.295 -43.8477 L 132.812 -45.0195 C 133.105 -45.0195 133.252 -45.0195 133.301 -44.873 C 133.301 -44.7266 133.252 -44.6289 133.008 -44.4824 L 107.52 -27.4414 C 103.223 -24.6094 103.076 -22.8027 104.639 -18.3105 L 115.283 10.3516 C 115.381 10.6445 115.381 10.6934 115.283 10.8398 C 115.186 10.9375 115.039 10.8398 114.844 10.7422 L 90.8691 -8.30078 C 87.0117 -11.2793 84.9121 -11.2793 81.0547 -8.30078 L 57.0801 10.7422 C 56.8359 10.8398 56.7383 10.9375 56.6406 10.8398 Z"/>
  </g>
  <g id="Bold-L" transform="matrix(1 0 0 1 2255.41 1556)">
   <path d="M 40.3809 31.2988 C 43.7012 33.7891 47.7539 33.0566 52.2461 29.7363 L 84.5703 6.00586 L 116.895 29.7363 C 121.436 33.0566 125.488 33.7891 128.76 31.2988 C 131.982 28.8574 132.666 24.8047 130.908 19.5801 L 118.164 -18.4082 L 150.732 -41.7969 C 155.273 -45.0195 157.178 -48.6816 155.859 -52.5879 C 154.541 -56.4453 150.928 -58.3008 145.361 -58.252 L 105.371 -57.959 L 93.2129 -96.1914 C 91.5039 -101.514 88.6719 -104.395 84.5703 -104.395 C 80.5176 -104.395 77.6367 -101.514 75.9277 -96.1914 L 63.7695 -57.959 L 23.7793 -58.252 C 18.2617 -58.3008 14.5996 -56.4453 13.2812 -52.5879 C 11.9629 -48.6816 13.916 -45.0195 18.4082 -41.7969 L 51.0254 -18.4082 L 38.2324 19.5801 C 36.4746 24.8047 37.1582 28.8574 40.3809 31.2988 Z M 53.2715 13.5742 C 53.1738 13.4766 53.1738 13.3789 53.2715 13.0371 L 64.6484 -18.6035 C 65.9668 -22.3145 65.7227 -24.1699 62.207 -26.5137 L 34.375 -45.4102 C 34.1309 -45.5566 33.9844 -45.7031 34.0332 -45.8496 C 34.1309 -45.9961 34.2773 -46.0449 34.6191 -46.0449 L 68.2129 -45.0684 C 72.168 -44.9707 73.8281 -45.9473 74.9023 -49.8047 L 84.2285 -82.0801 C 84.3262 -82.4219 84.4238 -82.5684 84.5703 -82.5684 C 84.7168 -82.5684 84.8145 -82.4219 84.9121 -82.0801 L 94.2383 -49.8047 C 95.3125 -45.9473 96.9727 -44.9707 100.977 -45.0684 L 134.57 -46.0449 C 134.912 -46.0449 135.059 -45.9961 135.107 -45.8496 C 135.156 -45.7031 135.059 -45.6055 134.814 -45.4102 L 106.934 -26.4648 C 103.418 -24.1699 103.174 -22.3145 104.492 -18.6035 L 115.869 13.0371 C 115.967 13.3789 115.967 13.4766 115.869 13.5742 C 115.771 13.7207 115.625 13.623 115.332 13.4766 L 88.7695 -7.22656 C 85.6445 -9.66797 83.5449 -9.66797 80.3711 -7.22656 L 53.8086 13.4766 C 53.5645 13.623 53.418 13.7207 53.2715 13.5742 Z"/>
  </g>
  <g id="Semibold-L" transform="matrix(1 0 0 1 1959.65 1556)">
   <path d="M 39.9902 30.5176 C 42.9688 32.7637 46.582 32.0801 50.6836 29.0527 L 83.6426 4.88281 L 116.553 29.0527 C 120.703 32.0801 124.316 32.7637 127.246 30.5176 C 130.127 28.3691 130.762 24.7559 129.102 19.9219 L 116.162 -18.75 L 149.365 -42.5781 C 153.467 -45.5078 155.176 -48.7793 154.053 -52.2949 C 152.881 -55.7129 149.609 -57.4219 144.482 -57.3242 L 103.809 -57.0801 L 91.4062 -95.9961 C 89.7949 -100.879 87.2559 -103.467 83.6426 -103.467 C 79.9805 -103.467 77.4414 -100.879 75.8789 -95.9961 L 63.4766 -57.0801 L 22.7539 -57.3242 C 17.627 -57.4219 14.4043 -55.7129 13.2324 -52.2949 C 12.0605 -48.7793 13.7695 -45.5078 17.9199 -42.5781 L 51.123 -18.75 L 38.1348 19.9219 C 36.4746 24.7559 37.1094 28.3691 39.9902 30.5176 Z M 50.9766 15.4785 C 50.8789 15.332 50.8789 15.2832 50.9766 14.8926 L 62.8906 -18.8477 C 64.0137 -21.9727 63.6719 -23.8281 60.6934 -25.8301 L 31.25 -46.0449 C 30.957 -46.2402 30.8105 -46.3867 30.9082 -46.5332 C 30.957 -46.7285 31.1035 -46.7285 31.4941 -46.7285 L 67.2363 -45.8984 C 70.6055 -45.8496 72.2168 -46.8262 73.1445 -50.0977 L 83.252 -84.375 C 83.3496 -84.7656 83.4473 -84.9121 83.6426 -84.9121 C 83.7891 -84.9121 83.8867 -84.7656 83.9844 -84.375 L 94.0918 -50.0977 C 95.0684 -46.8262 96.6797 -45.8496 100.049 -45.8984 L 135.791 -46.7285 C 136.182 -46.7285 136.328 -46.7285 136.377 -46.5332 C 136.426 -46.3867 136.328 -46.2891 136.035 -46.0449 L 106.543 -25.7812 C 103.564 -23.8281 103.271 -21.9727 104.346 -18.8477 L 116.26 14.8926 C 116.357 15.2832 116.406 15.332 116.26 15.4785 C 116.162 15.625 115.967 15.5273 115.674 15.332 L 87.3535 -6.44531 C 84.668 -8.54492 82.5684 -8.54492 79.8828 -6.44531 L 51.5625 15.332 C 51.2695 15.5273 51.123 15.625 50.9766 15.4785 Z"/>
  </g>
  <g id="Medium-L" transform="matrix(1 0 0 1 1663.65 1556)">
   <path d="M 39.7461 29.9805 C 42.3828 31.9824 45.6543 31.3965 49.5117 28.5645 L 82.9102 4.05273 L 116.26 28.5645 C 120.166 31.3965 123.438 31.9824 126.074 29.9805 C 128.711 28.0273 129.297 24.7559 127.734 20.2148 L 114.648 -18.9941 L 148.291 -43.1641 C 152.148 -45.8984 153.711 -48.877 152.637 -52.0508 C 151.611 -55.127 148.633 -56.6895 143.848 -56.6406 L 102.588 -56.3965 L 89.9902 -95.8008 C 88.5254 -100.391 86.1816 -102.734 82.9102 -102.734 C 79.6387 -102.734 77.2949 -100.391 75.8301 -95.8008 L 63.2324 -56.3965 L 21.9238 -56.6406 C 17.1875 -56.6895 14.209 -55.127 13.1836 -52.0508 C 12.1094 -48.877 13.6719 -45.8984 17.5293 -43.1641 L 51.1719 -18.9941 L 38.0371 20.2148 C 36.5234 24.7559 37.1094 28.0273 39.7461 29.9805 Z M 49.2188 16.9434 C 49.1211 16.7969 49.1699 16.6992 49.2676 16.3086 L 61.5234 -18.9941 C 62.5 -21.7285 62.1582 -23.584 59.5703 -25.293 L 28.8574 -46.582 C 28.5645 -46.7773 28.418 -46.9238 28.4668 -47.0703 C 28.5645 -47.2656 28.7109 -47.2656 29.1016 -47.2656 L 66.4551 -46.5332 C 69.3848 -46.4844 70.9473 -47.4609 71.8262 -50.3418 L 82.5195 -86.1328 C 82.6172 -86.5234 82.7148 -86.6699 82.9102 -86.6699 C 83.1055 -86.6699 83.2031 -86.5234 83.3008 -86.1328 L 93.9941 -50.3418 C 94.873 -47.4609 96.4355 -46.4844 99.3652 -46.5332 L 136.719 -47.2656 C 137.109 -47.2656 137.256 -47.2656 137.354 -47.0703 C 137.402 -46.9238 137.305 -46.7773 136.963 -46.582 L 106.25 -25.293 C 103.711 -23.584 103.32 -21.7285 104.297 -18.9941 L 116.553 16.3086 C 116.65 16.6992 116.699 16.7969 116.602 16.9434 C 116.455 17.0898 116.26 16.9922 115.967 16.7969 L 86.2793 -5.9082 C 83.9355 -7.66602 81.8848 -7.66602 79.541 -5.9082 L 49.8535 16.7969 C 49.5605 16.9922 49.3652 17.0898 49.2188 16.9434 Z"/>
  </g>
  <g id="Regular-L" transform="matrix(1 0 0 1 1367.86 1556)">
   <path d="M 39.3555 29.248 C 41.6504 30.957 44.5312 30.4199 47.998 27.8809 L 81.9824 2.97852 L 115.918 27.8809 C 119.434 30.4199 122.266 30.957 124.609 29.248 C 126.855 27.5391 127.393 24.707 125.977 20.6055 L 112.646 -19.3359 L 146.875 -43.9453 C 150.391 -46.4355 151.709 -49.0234 150.83 -51.7578 C 149.951 -54.3945 147.363 -55.8105 143.018 -55.7617 L 100.977 -55.5176 L 88.1836 -95.6055 C 86.8164 -99.7559 84.8145 -101.807 81.9824 -101.807 C 79.1016 -101.807 77.0996 -99.7559 75.7812 -95.6055 L 62.9395 -55.5176 L 20.8984 -55.7617 C 16.5527 -55.8105 14.0137 -54.3945 13.1348 -51.7578 C 12.207 -49.0234 13.5742 -46.4355 17.041 -43.9453 L 51.2695 -19.3359 L 37.9395 20.6055 C 36.5723 24.707 37.1094 27.5391 39.3555 29.248 Z M 46.9727 18.7988 C 46.8262 18.6523 46.875 18.5547 46.9727 18.1641 L 59.7656 -19.1895 C 60.5469 -21.3867 60.1074 -23.2422 58.1055 -24.6094 L 25.7324 -47.2168 C 25.3906 -47.4121 25.2441 -47.5586 25.3418 -47.7539 C 25.4395 -47.9492 25.5859 -47.9492 26.0254 -47.9492 L 65.4785 -47.4121 C 67.8223 -47.3633 69.3359 -48.291 70.0684 -50.6348 L 81.543 -88.3789 C 81.6895 -88.7695 81.7871 -88.9648 81.9824 -88.9648 C 82.1777 -88.9648 82.2754 -88.7695 82.373 -88.3789 L 93.8477 -50.6348 C 94.5801 -48.291 96.0938 -47.3633 98.4375 -47.4121 L 137.939 -47.9492 C 138.33 -47.9492 138.525 -47.9492 138.574 -47.7539 C 138.672 -47.5586 138.525 -47.4121 138.184 -47.2168 L 105.859 -24.6094 C 103.809 -23.2422 103.369 -21.3867 104.15 -19.1895 L 116.943 18.1641 C 117.041 18.5547 117.139 18.6523 116.992 18.7988 C 116.846 18.9941 116.65 18.8477 116.309 18.6523 L 84.8633 -5.17578 C 83.0078 -6.5918 80.9082 -6.5918 79.1016 -5.17578 L 47.6074 18.6523 C 47.3145 18.8477 47.1191 18.9941 46.9727 18.7988 Z"/>
  </g>
  <g id="Light-L" transform="matrix(1 0 0 1 1072.27 1556)">
   <path d="M 38.9648 28.3203 C 40.8203 29.7363 43.1152 29.3945 46.0449 27.2461 L 80.8594 1.75781 L 115.625 27.2461 C 118.604 29.3945 120.898 29.7363 122.754 28.3203 C 124.561 26.9531 125.098 24.707 123.926 21.1914 L 110.4 -19.6777 L 145.41 -44.9219 C 148.34 -47.0215 149.316 -49.1699 148.633 -51.3672 C 147.9 -53.5156 145.898 -54.6875 142.188 -54.6875 L 99.1211 -54.4922 L 85.9863 -95.5566 C 84.8145 -99.0234 83.1543 -100.635 80.8594 -100.635 C 78.5645 -100.635 76.8555 -99.0234 75.7324 -95.5566 L 62.5488 -54.4922 L 19.4824 -54.6875 C 15.8203 -54.6875 13.7695 -53.5156 13.0859 -51.3672 C 12.3535 -49.1699 13.3789 -47.0215 16.3086 -44.9219 L 51.3184 -19.6777 L 37.793 21.1914 C 36.6211 24.707 37.1094 26.9531 38.9648 28.3203 Z M 44.5312 20.6543 C 44.3359 20.5078 44.4336 20.3613 44.5801 19.873 L 57.7637 -19.2383 C 58.3984 -21.1426 58.0078 -22.7539 56.25 -23.9746 L 22.5586 -47.8027 C 22.168 -48.0469 21.9727 -48.2422 22.0703 -48.4375 C 22.1191 -48.6328 22.3633 -48.6328 22.8516 -48.6328 L 64.209 -48.2422 C 66.2109 -48.1934 67.4805 -49.0723 68.1152 -51.0742 L 80.3711 -90.4785 C 80.5176 -90.9668 80.6152 -91.2109 80.8594 -91.2109 C 81.0547 -91.2109 81.2012 -90.9668 81.2988 -90.4785 L 93.5547 -51.0742 C 94.1895 -49.0723 95.5078 -48.1934 97.5098 -48.2422 L 138.867 -48.6328 C 139.307 -48.6328 139.551 -48.6328 139.648 -48.4375 C 139.697 -48.2422 139.551 -48.0469 139.16 -47.8027 L 105.469 -23.9746 C 103.711 -22.7539 103.271 -21.1426 103.955 -19.2383 L 117.139 19.873 C 117.236 20.3613 117.334 20.5078 117.188 20.6543 C 116.992 20.8496 116.797 20.7031 116.406 20.459 L 83.3496 -4.24805 C 81.7383 -5.46875 79.9805 -5.46875 78.3691 -4.24805 L 45.3125 20.459 C 44.9219 20.7031 44.6777 20.8496 44.5312 20.6543 Z"/>
  </g>
  <g id="Thin-L" transform="matrix(1 0 0 1 777.052 1556)">
   <path d="M 38.4277 27.1484 C 39.6973 28.0762 41.2598 27.9785 43.457 26.416 L 79.3457 0.146484 L 115.283 26.416 C 117.48 27.9785 119.043 28.0762 120.312 27.1484 C 121.582 26.2207 122.07 24.707 121.191 22.0215 L 107.373 -20.166 L 143.408 -46.2402 C 145.605 -47.8516 146.143 -49.3652 145.703 -50.8301 C 145.215 -52.2949 143.896 -53.2715 141.113 -53.2715 L 96.6797 -53.1738 L 83.0566 -95.459 C 82.1777 -98.0957 80.9082 -99.0723 79.3457 -99.0723 C 77.7832 -99.0723 76.5625 -98.0957 75.6836 -95.459 L 62.0605 -53.1738 L 17.627 -53.2715 C 14.7949 -53.2715 13.5254 -52.2949 13.0371 -50.8301 C 12.5488 -49.3652 13.0859 -47.8516 15.2832 -46.2402 L 51.3672 -20.166 L 37.5488 22.0215 C 36.6699 24.707 37.1582 26.2207 38.4277 27.1484 Z M 41.3086 23.0957 C 41.0645 22.9492 41.2109 22.7051 41.3574 22.168 L 55.0781 -19.3359 C 55.6152 -20.8008 55.1758 -22.168 53.8086 -23.0957 L 18.3105 -48.584 C 17.8711 -48.877 17.627 -49.1211 17.7246 -49.3652 C 17.7734 -49.5605 18.1152 -49.5605 18.6523 -49.5605 L 62.4512 -49.3652 C 64.0137 -49.3652 65.0391 -50.0977 65.5762 -51.6602 L 78.8086 -93.3105 C 78.9551 -93.8477 79.1504 -94.1406 79.3457 -94.1406 C 79.5898 -94.1406 79.7363 -93.8477 79.8828 -93.3105 L 93.1641 -51.6602 C 93.6523 -50.0977 94.6777 -49.3652 96.2891 -49.3652 L 140.088 -49.5605 C 140.625 -49.5605 140.918 -49.5605 141.016 -49.3652 C 141.113 -49.1211 140.869 -48.877 140.381 -48.584 L 104.932 -23.0957 C 103.516 -22.168 103.125 -20.8008 103.662 -19.3359 L 117.334 22.168 C 117.48 22.7051 117.627 22.9492 117.432 23.0957 C 117.188 23.291 116.943 23.0957 116.504 22.8027 L 81.3477 -3.07617 C 80.0781 -4.05273 78.6621 -4.05273 77.3926 -3.07617 L 42.2363 22.8027 C 41.748 23.0957 41.5527 23.291 41.3086 23.0957 Z"/>
  </g>
  <g id="Ultralight-L" transform="matrix(1 0 0 1 481.122 1556)">
   <path d="M 38.1348 26.5137 C 39.1113 27.1973 40.332 27.2949 42.1387 25.9766 L 78.6133 -0.683594 L 115.039 25.9766 C 116.895 27.2949 118.066 27.1973 119.043 26.5137 C 120.02 25.8301 120.508 24.707 119.775 22.4121 L 105.811 -20.4102 L 142.432 -46.9238 C 144.238 -48.2422 144.531 -49.4629 144.189 -50.5859 C 143.848 -51.709 142.92 -52.5391 140.527 -52.5391 L 95.4102 -52.4902 L 81.543 -95.4102 C 80.8105 -97.6074 79.7852 -98.2422 78.6133 -98.2422 C 77.3926 -98.2422 76.416 -97.6074 75.6836 -95.4102 L 61.8164 -52.4902 L 16.6504 -52.5391 C 14.3066 -52.5391 13.3301 -51.709 12.9883 -50.5859 C 12.6953 -49.4629 12.9395 -48.2422 14.7949 -46.9238 L 51.416 -20.4102 L 37.4023 22.4121 C 36.6699 24.707 37.1582 25.8301 38.1348 26.5137 Z M 39.6484 24.3652 C 39.4043 24.2188 39.5508 23.9258 39.7461 23.3398 L 53.7109 -19.3848 C 54.1504 -20.6055 53.7598 -21.8262 52.5391 -22.6562 L 16.1621 -48.9746 C 15.6738 -49.3164 15.4297 -49.5605 15.4785 -49.8047 C 15.5762 -50.0488 15.918 -50.0488 16.5039 -50.0488 L 61.5723 -49.9512 C 62.8906 -49.9512 63.8184 -50.6348 64.2578 -52.002 L 78.0273 -94.7754 C 78.1738 -95.3125 78.3691 -95.6543 78.6133 -95.6543 C 78.8574 -95.6543 79.0039 -95.3125 79.1992 -94.7754 L 92.9199 -52.002 C 93.4082 -50.6348 94.2871 -49.9512 95.6055 -49.9512 L 140.723 -50.0488 C 141.309 -50.0488 141.65 -50.0488 141.699 -49.8047 C 141.797 -49.5605 141.553 -49.3164 141.016 -48.9746 L 104.639 -22.6562 C 103.467 -21.8262 103.076 -20.6055 103.516 -19.3848 L 117.48 23.3398 C 117.627 23.9258 117.822 24.2188 117.529 24.3652 C 117.285 24.5117 117.041 24.3652 116.553 24.0234 L 80.3223 -2.49023 C 79.1992 -3.32031 78.0273 -3.32031 76.8555 -2.49023 L 40.6738 24.0234 C 40.1367 24.3652 39.8926 24.5117 39.6484 24.3652 Z"/>
  </g>
  <g id="Black-M" transform="matrix(1 0 0 1 2864.85 1126)">
   <path d="M 32.5195 18.7012 C 36.1816 21.5332 40.7227 20.8008 45.3613 17.334 L 68.5547 0.292969 L 91.6992 17.334 C 96.3867 20.8008 100.928 21.5332 104.639 18.7012 C 108.301 15.9668 109.033 11.377 107.227 6.10352 L 98.0469 -21.0938 L 121.387 -37.793 C 126.025 -41.1133 128.174 -45.2148 126.66 -49.6094 C 125.146 -54.0039 121.094 -56.1035 115.43 -56.0547 L 86.8164 -55.8105 L 78.125 -83.2031 C 76.3672 -88.6719 73.1445 -91.8945 68.5547 -91.8945 C 63.9648 -91.8945 60.791 -88.6719 59.0332 -83.2031 L 50.293 -55.8105 L 21.6309 -56.0547 C 16.0645 -56.1035 11.9629 -54.0039 10.4492 -49.707 C 8.88672 -45.2148 11.084 -41.1133 15.7227 -37.793 L 39.1113 -21.0938 L 29.9316 6.10352 C 28.0762 11.377 28.8574 15.9668 32.5195 18.7012 Z M 48.877 -3.80859 C 48.8281 -3.85742 48.7793 -3.90625 48.8281 -4.10156 L 55.8594 -21.582 C 57.5684 -26.3672 57.7148 -27.7344 52.9785 -30.7617 L 37.0605 -40.918 C 36.9629 -40.9668 36.8652 -41.1133 36.8652 -41.1621 C 36.8652 -41.2598 37.0117 -41.3086 37.207 -41.3086 L 55.957 -40.0391 C 61.084 -39.8926 62.5488 -40.6738 63.7695 -45.6055 L 68.3594 -63.8184 C 68.457 -64.0137 68.5059 -64.0625 68.5547 -64.0625 C 68.6523 -64.0625 68.7012 -64.0137 68.75 -63.8184 L 73.3398 -45.6055 C 74.6094 -40.6738 76.0254 -39.8926 81.2012 -40.0391 L 100 -41.3086 C 100.195 -41.3086 100.342 -41.2598 100.342 -41.1621 C 100.293 -41.1133 100.244 -41.0645 100.146 -40.918 L 84.1797 -30.7129 C 79.4922 -27.6855 79.541 -26.3672 81.25 -21.582 L 88.3301 -4.10156 C 88.3789 -3.90625 88.3301 -3.85742 88.2324 -3.80859 C 88.1836 -3.71094 88.1348 -3.80859 87.9883 -3.85742 L 73.4863 -15.9668 C 69.2871 -19.1895 67.8223 -19.1895 63.6719 -15.9668 L 49.1211 -3.85742 C 49.0234 -3.80859 48.9258 -3.71094 48.877 -3.80859 Z"/>
  </g>
  <g id="Heavy-M" transform="matrix(1 0 0 1 2569.16 1126)">
   <path d="M 32.0801 17.9199 C 35.4004 20.4102 39.4531 19.7266 43.7012 16.5527 L 67.5293 -0.927734 L 91.3086 16.5527 C 95.6055 19.7266 99.6582 20.4102 102.979 17.9199 C 106.25 15.4297 106.934 11.3281 105.225 6.49414 L 95.8008 -21.4844 L 119.824 -38.6719 C 124.072 -41.6992 126.025 -45.3613 124.658 -49.3164 C 123.34 -53.2227 119.678 -55.0781 114.453 -55.0293 L 85.0586 -54.7852 L 76.123 -82.959 C 74.5117 -87.9395 71.6309 -90.8203 67.5293 -90.8203 C 63.4277 -90.8203 60.5469 -87.9395 58.9355 -82.959 L 50 -54.7852 L 20.5566 -55.0293 C 15.4297 -55.0781 11.7676 -53.2227 10.4004 -49.3652 C 9.0332 -45.3613 10.9863 -41.6992 15.2344 -38.6719 L 39.2578 -21.4844 L 29.834 6.49414 C 28.125 11.3281 28.8086 15.4297 32.0801 17.9199 Z M 46.2891 -1.5625 C 46.1914 -1.66016 46.1426 -1.70898 46.2402 -1.9043 L 53.9062 -21.875 C 55.3711 -25.9766 55.3711 -27.3926 51.3672 -29.9805 L 33.4473 -41.6992 C 33.3008 -41.7969 33.252 -41.8945 33.252 -41.9922 C 33.252 -42.041 33.3984 -42.0898 33.5938 -42.0898 L 54.9316 -41.0156 C 59.3262 -40.918 60.6934 -41.6504 61.8164 -45.8984 L 67.334 -66.5039 C 67.3828 -66.6992 67.4316 -66.7969 67.5293 -66.7969 C 67.627 -66.7969 67.6758 -66.6992 67.7246 -66.5039 L 73.2422 -45.8984 C 74.3652 -41.6504 75.7812 -40.918 80.1758 -41.0156 L 101.514 -42.0898 C 101.709 -42.0898 101.855 -42.041 101.855 -41.9922 C 101.855 -41.8945 101.807 -41.8457 101.66 -41.6992 L 83.7402 -29.9316 C 79.7363 -27.3438 79.6875 -25.9766 81.1523 -21.875 L 88.8672 -1.9043 C 88.916 -1.70898 88.8672 -1.66016 88.8184 -1.5625 C 88.7207 -1.51367 88.6719 -1.5625 88.5254 -1.66016 L 71.875 -15.1367 C 68.3105 -17.8711 66.748 -17.8711 63.1836 -15.1367 L 46.582 -1.66016 C 46.4355 -1.5625 46.3379 -1.51367 46.2891 -1.5625 Z"/>
  </g>
  <g id="Bold-M" transform="matrix(1 0 0 1 2273.6 1126)">
   <path d="M 31.6406 16.9922 C 34.4727 19.1895 38.0371 18.5059 41.8457 15.7227 L 66.3574 -2.29492 L 90.8691 15.7227 C 94.7266 18.5059 98.2422 19.1895 101.123 16.9922 C 103.955 14.8438 104.541 11.2793 103.027 6.88477 L 93.3105 -21.875 L 118.066 -39.5996 C 121.875 -42.334 123.584 -45.5078 122.412 -48.9258 C 121.289 -52.3438 118.066 -53.9551 113.379 -53.9062 L 83.1055 -53.6621 L 73.877 -82.666 C 72.4121 -87.1582 69.9219 -89.6973 66.3574 -89.6973 C 62.8418 -89.6973 60.3516 -87.1582 58.8867 -82.666 L 49.6582 -53.6621 L 19.3359 -53.9062 C 14.6484 -53.9551 11.4746 -52.3438 10.3516 -48.9746 C 9.13086 -45.5078 10.8398 -42.334 14.6973 -39.5996 L 39.4043 -21.875 L 29.7363 6.88477 C 28.2227 11.2793 28.8086 14.8438 31.6406 16.9922 Z M 43.3594 0.927734 C 43.2617 0.830078 43.2617 0.78125 43.3105 0.537109 L 51.709 -22.168 C 52.8809 -25.5371 52.7832 -26.9531 49.5117 -29.0527 L 29.4434 -42.5293 C 29.248 -42.6758 29.1992 -42.7734 29.1992 -42.8711 C 29.248 -42.9688 29.3457 -43.0176 29.5898 -43.0176 L 53.7598 -42.0898 C 57.3242 -42.041 58.6914 -42.7734 59.6191 -46.2402 L 66.1621 -69.5312 C 66.2109 -69.7754 66.2598 -69.8242 66.3574 -69.8242 C 66.4551 -69.8242 66.5527 -69.7754 66.6016 -69.5312 L 73.1445 -46.2402 C 74.0723 -42.7734 75.4395 -42.041 79.0527 -42.0898 L 103.174 -43.0176 C 103.418 -43.0176 103.564 -42.9688 103.564 -42.8711 C 103.613 -42.7734 103.516 -42.6758 103.369 -42.5293 L 83.2031 -29.0527 C 80.0293 -26.9531 79.8828 -25.5371 81.0547 -22.168 L 89.4531 0.537109 C 89.502 0.78125 89.502 0.830078 89.4043 0.927734 C 89.3555 0.976562 89.2578 0.927734 89.0625 0.830078 L 70.0684 -14.209 C 67.1875 -16.4062 65.5762 -16.4062 62.6953 -14.209 L 43.7012 0.830078 C 43.5059 0.927734 43.4082 0.976562 43.3594 0.927734 Z"/>
  </g>
  <g id="Semibold-M" transform="matrix(1 0 0 1 1977.69 1126)">
   <path d="M 31.2988 16.3574 C 33.8867 18.3105 37.0117 17.7246 40.5762 15.0879 L 65.5762 -3.27148 L 90.5762 15.0879 C 94.1406 17.7246 97.2656 18.3105 99.8535 16.3574 C 102.393 14.4531 102.881 11.2793 101.514 7.17773 L 91.6016 -22.168 L 116.846 -40.2832 C 120.361 -42.7734 121.875 -45.6543 120.85 -48.6816 C 119.824 -51.709 116.992 -53.1738 112.646 -53.125 L 81.7383 -52.8809 L 72.3145 -82.4219 C 70.9961 -86.6211 68.75 -88.8672 65.5762 -88.8672 C 62.4023 -88.8672 60.2051 -86.6211 58.8379 -82.4219 L 49.4141 -52.8809 L 18.5059 -53.125 C 14.1602 -53.1738 11.3281 -51.709 10.3027 -48.7305 C 9.22852 -45.6543 10.791 -42.7734 14.3066 -40.2832 L 39.5508 -22.168 L 29.6387 7.17773 C 28.2715 11.2793 28.7598 14.4531 31.2988 16.3574 Z M 41.3086 2.63672 C 41.2598 2.49023 41.2598 2.44141 41.3086 2.19727 L 50.1465 -22.4121 C 51.1719 -25.1953 50.9766 -26.709 48.291 -28.4668 L 26.6602 -43.1152 C 26.4648 -43.2617 26.3672 -43.3594 26.416 -43.457 C 26.4648 -43.6035 26.5625 -43.6035 26.8066 -43.6035 L 52.9297 -42.8711 C 55.9082 -42.7734 57.2754 -43.5547 58.1055 -46.4844 L 65.332 -71.582 C 65.3809 -71.8262 65.4785 -71.9238 65.5762 -71.9238 C 65.6738 -71.9238 65.7715 -71.8262 65.8203 -71.582 L 73.0957 -46.4844 C 73.877 -43.5547 75.2441 -42.7734 78.2227 -42.8711 L 104.346 -43.6035 C 104.59 -43.6035 104.736 -43.6035 104.785 -43.457 C 104.785 -43.3594 104.736 -43.2617 104.541 -43.1152 L 82.8613 -28.418 C 80.2246 -26.6602 79.9805 -25.1953 81.0059 -22.4121 L 89.8438 2.19727 C 89.8926 2.44141 89.8926 2.49023 89.8438 2.63672 C 89.7461 2.73438 89.6484 2.63672 89.4531 2.53906 L 68.7988 -13.5254 C 66.4062 -15.3809 64.7461 -15.3809 62.3535 -13.5254 L 41.6992 2.53906 C 41.5039 2.63672 41.4062 2.73438 41.3086 2.63672 Z"/>
  </g>
  <g id="Medium-M" transform="matrix(1 0 0 1 1681.59 1126)">
   <path d="M 31.0547 15.8691 C 33.3984 17.627 36.2793 17.0898 39.5996 14.6484 L 64.9902 -4.00391 L 90.332 14.6484 C 93.6523 17.0898 96.5332 17.627 98.877 15.8691 C 101.172 14.1602 101.66 11.2793 100.342 7.42188 L 90.332 -22.4121 L 115.918 -40.7715 C 119.238 -43.1152 120.605 -45.752 119.678 -48.4863 C 118.75 -51.2207 116.162 -52.5879 112.061 -52.4902 L 80.7129 -52.2949 L 71.1426 -82.2754 C 69.873 -86.1816 67.8711 -88.2812 64.9902 -88.2812 C 62.0605 -88.2812 60.0586 -86.1816 58.7891 -82.2754 L 49.2676 -52.2949 L 17.8711 -52.4902 C 13.7695 -52.5879 11.1816 -51.2207 10.2539 -48.4863 C 9.32617 -45.752 10.7422 -43.1152 14.0137 -40.7715 L 39.5996 -22.4121 L 29.5898 7.42188 C 28.2715 11.2793 28.7598 14.1602 31.0547 15.8691 Z M 39.7949 3.90625 C 39.6973 3.80859 39.6973 3.75977 39.7949 3.4668 L 49.0234 -22.5586 C 49.8535 -24.9512 49.6094 -26.4648 47.3145 -27.9785 L 24.5117 -43.6035 C 24.3164 -43.7012 24.2188 -43.7988 24.3164 -43.9453 C 24.3652 -44.043 24.4629 -44.0918 24.707 -44.0918 L 52.3438 -43.4082 C 54.8828 -43.3594 56.2012 -44.1406 56.9336 -46.6797 L 64.6973 -73.1445 C 64.7949 -73.4375 64.8438 -73.5352 64.9902 -73.5352 C 65.0879 -73.5352 65.1855 -73.4375 65.2344 -73.1445 L 72.998 -46.6797 C 73.7305 -44.1406 75.0488 -43.3594 77.6367 -43.4082 L 105.225 -44.0918 C 105.518 -44.0918 105.615 -44.043 105.664 -43.9453 C 105.713 -43.7988 105.615 -43.75 105.42 -43.6035 L 82.6172 -27.9785 C 80.3711 -26.4648 80.0781 -24.9512 80.957 -22.5586 L 90.1367 3.4668 C 90.2344 3.75977 90.2344 3.80859 90.1367 3.90625 C 90.0879 4.00391 89.9414 3.95508 89.7461 3.80859 L 67.8711 -13.0371 C 65.8203 -14.6484 64.1113 -14.6484 62.0605 -13.0371 L 40.1855 3.80859 C 39.9902 3.95508 39.8926 4.00391 39.7949 3.90625 Z"/>
  </g>
  <g id="Regular-M" transform="matrix(1 0 0 1 1385.66 1126)">
   <path d="M 30.7617 15.2344 C 32.7637 16.7969 35.3027 16.2598 38.3301 14.0625 L 64.1602 -4.93164 L 90.0391 14.0625 C 93.0664 16.2598 95.5566 16.7969 97.6074 15.2344 C 99.6094 13.7207 100.049 11.2305 98.8281 7.71484 L 88.623 -22.7051 L 114.697 -41.4062 C 117.725 -43.5547 118.945 -45.8496 118.164 -48.2422 C 117.383 -50.6348 115.088 -51.8066 111.328 -51.7578 L 79.3457 -51.5137 L 69.6289 -82.0801 C 68.457 -85.6445 66.6992 -87.5 64.1602 -87.5 C 61.6699 -87.5 59.9121 -85.6445 58.7402 -82.0801 L 49.0234 -51.5137 L 17.041 -51.7578 C 13.2812 -51.8066 10.9863 -50.6348 10.2051 -48.2422 C 9.375 -45.8496 10.6445 -43.5547 13.6719 -41.4062 L 39.7461 -22.7051 L 29.541 7.71484 C 28.3203 11.2305 28.7598 13.7207 30.7617 15.2344 Z M 37.793 5.61523 C 37.6953 5.46875 37.7441 5.41992 37.793 5.12695 L 47.5098 -22.7539 C 48.1934 -24.6582 47.8027 -26.2207 46.0938 -27.3926 L 21.7773 -44.1895 C 21.5332 -44.3359 21.4844 -44.4336 21.5332 -44.5312 C 21.582 -44.6777 21.6797 -44.6777 21.9727 -44.6777 L 51.5137 -44.1895 C 53.5156 -44.1406 54.7852 -44.9219 55.4199 -46.9238 L 63.916 -75.1953 C 63.9648 -75.4883 64.0625 -75.5859 64.1602 -75.5859 C 64.3066 -75.5859 64.4043 -75.4883 64.4531 -75.1953 L 72.9492 -46.9238 C 73.584 -44.9219 74.8535 -44.1406 76.8555 -44.1895 L 106.396 -44.6777 C 106.689 -44.6777 106.787 -44.6777 106.836 -44.5312 C 106.885 -44.4336 106.787 -44.3359 106.592 -44.1895 L 82.2754 -27.3926 C 80.5664 -26.2207 80.1758 -24.6582 80.8594 -22.7539 L 90.5762 5.12695 C 90.625 5.41992 90.6738 5.46875 90.5762 5.61523 C 90.4785 5.71289 90.332 5.66406 90.1367 5.51758 L 66.6504 -12.4023 C 65.0879 -13.623 63.2812 -13.623 61.7188 -12.4023 L 38.2324 5.51758 C 38.0371 5.66406 37.8906 5.71289 37.793 5.61523 Z"/>
  </g>
  <g id="Light-M" transform="matrix(1 0 0 1 1089.95 1126)">
   <path d="M 30.3711 14.4531 C 32.0312 15.6738 34.0332 15.332 36.5723 13.4766 L 63.1836 -6.00586 L 89.7949 13.4766 C 92.2852 15.332 94.3359 15.6738 95.9473 14.4531 C 97.6074 13.2324 97.998 11.2305 96.9727 8.25195 L 86.5723 -23.0469 L 113.379 -42.2852 C 115.918 -44.0918 116.797 -45.9961 116.162 -47.9004 C 115.527 -49.8047 113.721 -50.8301 110.596 -50.7812 L 77.6855 -50.6348 L 67.627 -82.0312 C 66.6504 -85.0098 65.1855 -86.4258 63.1836 -86.4258 C 61.1328 -86.4258 59.7168 -85.0098 58.7402 -82.0312 L 48.6816 -50.6348 L 15.7715 -50.7812 C 12.5977 -50.8301 10.791 -49.8047 10.1562 -47.9004 C 9.52148 -45.9961 10.4492 -44.0918 12.9883 -42.2852 L 39.7461 -23.0469 L 29.3945 8.25195 C 28.3691 11.2305 28.7598 13.2324 30.3711 14.4531 Z M 35.5957 7.27539 C 35.498 7.12891 35.5469 7.03125 35.6445 6.68945 L 45.7031 -22.8027 C 46.2402 -24.4141 45.8984 -25.7812 44.4336 -26.8066 L 18.9453 -44.6777 C 18.6523 -44.873 18.5059 -45.0195 18.6035 -45.166 C 18.6523 -45.3125 18.7988 -45.3125 19.1406 -45.3125 L 50.3418 -44.9219 C 52.0508 -44.9219 53.1738 -45.6055 53.7109 -47.3145 L 62.8418 -77.0996 C 62.9395 -77.4414 63.0371 -77.5879 63.1836 -77.5879 C 63.3301 -77.5879 63.4277 -77.4414 63.5254 -77.0996 L 72.6562 -47.3145 C 73.1934 -45.6055 74.3164 -44.9219 76.0254 -44.9219 L 107.227 -45.3125 C 107.568 -45.3125 107.715 -45.3125 107.764 -45.166 C 107.812 -45.0195 107.715 -44.873 107.422 -44.6777 L 81.9336 -26.8066 C 80.4688 -25.7812 80.0781 -24.4141 80.6641 -22.8027 L 90.7227 6.68945 C 90.8203 7.03125 90.8691 7.12891 90.7227 7.27539 C 90.625 7.37305 90.4785 7.27539 90.1855 7.12891 L 65.2832 -11.6211 C 63.916 -12.6465 62.4023 -12.6465 61.084 -11.6211 L 36.1816 7.12891 C 35.8887 7.27539 35.7422 7.37305 35.5957 7.27539 Z"/>
  </g>
  <g id="Thin-M" transform="matrix(1 0 0 1 794.581 1126)">
   <path d="M 29.9316 13.3789 C 31.0059 14.1602 32.373 14.0625 34.2773 12.6953 L 61.8652 -7.4707 L 89.4043 12.6953 C 91.3086 14.0625 92.6758 14.1602 93.7988 13.3789 C 94.873 12.5488 95.2637 11.2305 94.5312 8.98438 L 83.8867 -23.4863 L 111.621 -43.5059 C 113.477 -44.8242 113.965 -46.1426 113.574 -47.4609 C 113.135 -48.7305 111.963 -49.5117 109.619 -49.5117 L 75.4883 -49.4141 L 64.9902 -81.9336 C 64.2578 -84.1309 63.2324 -85.0098 61.8652 -85.0098 C 60.498 -85.0098 59.4238 -84.1309 58.6914 -81.9336 L 48.2422 -49.4141 L 14.0625 -49.5117 C 11.7188 -49.5117 10.5469 -48.7305 10.1562 -47.4609 C 9.7168 -46.1426 10.2051 -44.8242 12.1094 -43.5059 L 39.8438 -23.4863 L 29.1504 8.98438 C 28.418 11.2305 28.8086 12.5488 29.9316 13.3789 Z M 32.7148 9.47266 C 32.5684 9.32617 32.666 9.17969 32.7637 8.78906 L 43.2617 -22.9004 C 43.7012 -24.1211 43.4082 -25.2441 42.2363 -26.0254 L 15.1367 -45.4102 C 14.7949 -45.6055 14.6484 -45.8008 14.6973 -45.9961 C 14.7461 -46.1426 14.9902 -46.1426 15.3809 -46.1426 L 48.7793 -45.9473 C 50.0977 -45.9473 50.9766 -46.5332 51.416 -47.8516 L 61.4258 -79.6387 C 61.5723 -80.0293 61.6699 -80.2734 61.8652 -80.2734 C 62.0117 -80.2734 62.1582 -80.0293 62.2559 -79.6387 L 72.3145 -47.8516 C 72.7051 -46.5332 73.584 -45.9473 74.9023 -45.9473 L 108.301 -46.1426 C 108.74 -46.1426 108.936 -46.1426 108.984 -45.9961 C 109.082 -45.8008 108.887 -45.6055 108.545 -45.4102 L 81.4453 -26.0254 C 80.3223 -25.2441 79.9805 -24.1211 80.4199 -22.9004 L 90.918 8.78906 C 91.0156 9.17969 91.1133 9.32617 90.9668 9.47266 C 90.8203 9.57031 90.625 9.47266 90.2832 9.22852 L 63.4766 -10.5957 C 62.4512 -11.377 61.2793 -11.377 60.2051 -10.5957 L 33.3984 9.22852 C 33.0566 9.47266 32.9102 9.57031 32.7148 9.47266 Z"/>
  </g>
  <g id="Ultralight-M" transform="matrix(1 0 0 1 498.554 1126)">
   <path d="M 29.6875 12.793 C 30.5176 13.4277 31.543 13.4277 33.0566 12.3047 L 61.1816 -8.20312 L 89.2578 12.3047 C 90.7715 13.4277 91.7969 13.4277 92.6758 12.793 C 93.5059 12.207 93.8965 11.2305 93.2617 9.32617 L 82.4707 -23.6816 L 110.693 -44.0918 C 112.207 -45.2148 112.5 -46.2402 112.207 -47.2168 C 111.914 -48.1934 111.084 -48.877 109.131 -48.877 L 74.3652 -48.7793 L 63.6719 -81.8848 C 63.0371 -83.6914 62.207 -84.3262 61.1816 -84.3262 C 60.1562 -84.3262 59.2773 -83.6914 58.6426 -81.8848 L 47.998 -48.7793 L 13.2324 -48.877 C 11.2793 -48.877 10.4004 -48.1934 10.1074 -47.2168 C 9.81445 -46.2402 10.1074 -45.2148 11.6211 -44.0918 L 39.8438 -23.6816 L 29.0527 9.32617 C 28.418 11.2305 28.8086 12.207 29.6875 12.793 Z M 31.25 10.5957 C 31.0547 10.4492 31.2012 10.2539 31.2988 9.81445 L 42.041 -22.9004 C 42.4316 -23.9746 42.0898 -24.9512 41.1133 -25.6348 L 13.1836 -45.752 C 12.8418 -45.9961 12.6465 -46.1914 12.6953 -46.3867 C 12.7441 -46.582 12.9883 -46.582 13.4277 -46.582 L 47.998 -46.4355 C 49.1211 -46.4355 49.8535 -47.0215 50.1953 -48.1445 L 60.7422 -80.9082 C 60.8398 -81.3477 60.9863 -81.5918 61.1816 -81.5918 C 61.377 -81.5918 61.4746 -81.3477 61.6211 -80.9082 L 72.1191 -48.1445 C 72.4609 -47.0215 73.2422 -46.4355 74.3164 -46.4355 L 108.887 -46.582 C 109.326 -46.582 109.57 -46.582 109.619 -46.3867 C 109.717 -46.1914 109.521 -45.9961 109.131 -45.752 L 81.2012 -25.6348 C 80.2246 -24.9512 79.9316 -23.9746 80.2734 -22.9004 L 91.0156 9.81445 C 91.1621 10.2539 91.2598 10.4492 91.0645 10.5957 C 90.918 10.6934 90.7227 10.5957 90.332 10.3027 L 62.5977 -10.0586 C 61.6699 -10.6934 60.6934 -10.6934 59.7656 -10.0586 L 31.9824 10.3027 C 31.6406 10.5957 31.4453 10.6934 31.25 10.5957 Z"/>
  </g>
  <g id="Black-S" transform="matrix(1 0 0 1 2879.74 696)">
   <path d="M 25.4395 6.98242 C 28.3203 9.17969 31.8359 8.59375 35.4492 5.9082 L 53.6621 -7.4707 L 71.8262 5.9082 C 75.4883 8.59375 79.0039 9.17969 81.8848 6.98242 C 84.7168 4.83398 85.3027 1.26953 83.8867 -2.83203 L 76.6602 -24.1699 L 95.0195 -37.3047 C 98.6328 -39.8926 100.293 -43.0664 99.1211 -46.4844 C 97.9492 -49.9023 94.7754 -51.5137 90.3809 -51.4648 L 67.9199 -51.2695 L 61.084 -72.8027 C 59.7168 -77.0508 57.2266 -79.541 53.6621 -79.541 C 50.0977 -79.541 47.6074 -77.0508 46.2402 -72.8027 L 39.4043 -51.2695 L 16.8945 -51.4648 C 12.5488 -51.5137 9.375 -49.9023 8.20312 -46.5332 C 6.98242 -43.0664 8.69141 -39.8926 12.3047 -37.3047 L 30.6641 -24.1699 L 23.4375 -2.83203 C 22.0215 1.26953 22.6074 4.83398 25.4395 6.98242 Z M 38.1348 -10.4492 C 38.0859 -10.498 38.0371 -10.5469 38.0859 -10.6934 L 43.6523 -24.5605 C 44.9707 -28.2715 45.0684 -29.3457 41.4062 -31.6895 L 28.8086 -39.7461 C 28.7109 -39.7949 28.6621 -39.8926 28.6621 -39.9414 C 28.6621 -39.9902 28.7598 -40.0391 28.9062 -40.0391 L 43.7988 -39.0625 C 47.7539 -38.9648 48.877 -39.5508 49.8535 -43.3594 L 53.5156 -57.8125 C 53.5645 -57.959 53.6133 -58.0078 53.6621 -58.0078 C 53.7109 -58.0078 53.7598 -57.959 53.8086 -57.8125 L 57.4707 -43.3594 C 58.4473 -39.5508 59.5703 -38.9648 63.5742 -39.0625 L 78.4668 -40.0391 C 78.6133 -40.0391 78.7109 -39.9902 78.7109 -39.9414 C 78.7109 -39.8926 78.6621 -39.8438 78.5645 -39.7461 L 65.918 -31.6406 C 62.3047 -29.2969 62.3535 -28.2715 63.6719 -24.5605 L 69.2383 -10.6934 C 69.2871 -10.5469 69.2383 -10.498 69.1895 -10.4492 C 69.1406 -10.4004 69.0918 -10.4492 68.9941 -10.498 L 57.4707 -20.0684 C 54.248 -22.5586 53.0762 -22.5586 49.8535 -20.0684 L 38.3301 -10.498 C 38.2324 -10.4492 38.1836 -10.4004 38.1348 -10.4492 Z"/>
  </g>
  <g id="Heavy-S" transform="matrix(1 0 0 1 2583.71 696)">
   <path d="M 25.1465 6.44531 C 27.7832 8.44727 31.0059 7.86133 34.375 5.37109 L 52.9785 -8.30078 L 71.5332 5.37109 C 74.9512 7.86133 78.1738 8.44727 80.8105 6.44531 C 83.3984 4.49219 83.8867 1.26953 82.5684 -2.58789 L 75.1953 -24.4141 L 93.9453 -37.8418 C 97.3145 -40.2832 98.877 -43.1641 97.8027 -46.2891 C 96.7285 -49.3652 93.8477 -50.8301 89.7461 -50.7812 L 66.748 -50.5859 L 59.7656 -72.6074 C 58.4961 -76.5625 56.25 -78.8574 52.9785 -78.8574 C 49.7559 -78.8574 47.4609 -76.5625 46.1914 -72.6074 L 39.209 -50.5859 L 16.2109 -50.7812 C 12.1094 -50.8301 9.22852 -49.3652 8.1543 -46.2891 C 7.08008 -43.1641 8.64258 -40.2832 12.0117 -37.8418 L 30.7617 -24.4141 L 23.3887 -2.58789 C 22.0703 1.26953 22.6074 4.49219 25.1465 6.44531 Z M 36.377 -8.93555 C 36.3281 -8.98438 36.2793 -9.0332 36.3281 -9.17969 L 42.334 -24.7559 C 43.5059 -27.9785 43.5059 -29.1016 40.332 -31.1523 L 26.3672 -40.2832 C 26.2695 -40.332 26.2207 -40.4297 26.2207 -40.4785 C 26.2207 -40.5273 26.3184 -40.5762 26.4648 -40.5762 L 43.1152 -39.7461 C 46.5332 -39.6484 47.6562 -40.2344 48.5352 -43.5547 L 52.832 -59.668 C 52.8809 -59.8145 52.9297 -59.8633 52.9785 -59.8633 C 53.0273 -59.8633 53.0762 -59.8145 53.125 -59.668 L 57.4219 -43.5547 C 58.3008 -40.2344 59.4238 -39.6484 62.8906 -39.7461 L 79.541 -40.5762 C 79.6875 -40.5762 79.7852 -40.5273 79.7852 -40.4785 C 79.7852 -40.4297 79.7363 -40.3809 79.6387 -40.2832 L 65.625 -31.1035 C 62.5 -29.0527 62.5 -27.9785 63.623 -24.7559 L 69.6289 -9.17969 C 69.6777 -9.0332 69.6289 -8.98438 69.5801 -8.93555 C 69.5312 -8.88672 69.4824 -8.93555 69.3848 -8.98438 L 56.3965 -19.5312 C 53.6133 -21.6797 52.3438 -21.6797 49.5605 -19.5312 L 36.6211 -8.98438 C 36.4746 -8.93555 36.4258 -8.88672 36.377 -8.93555 Z"/>
  </g>
  <g id="Bold-S" transform="matrix(1 0 0 1 2287.76 696)">
   <path d="M 24.8535 5.85938 C 27.1973 7.61719 30.0781 7.08008 33.1543 4.78516 L 52.2461 -9.22852 L 71.2402 4.78516 C 74.3652 7.08008 77.2461 7.61719 79.5898 5.85938 C 81.8848 4.10156 82.3242 1.2207 81.1035 -2.34375 L 73.5352 -24.707 L 92.7734 -38.4766 C 95.8984 -40.6738 97.2656 -43.2617 96.3379 -46.0449 C 95.4102 -48.7793 92.8223 -50.0977 88.9648 -50.0488 L 65.4785 -49.8535 L 58.3008 -72.3633 C 57.1289 -76.0254 55.127 -78.125 52.2461 -78.125 C 49.3164 -78.125 47.3145 -76.0254 46.1426 -72.3633 L 39.0137 -49.8535 L 15.4297 -50.0488 C 11.6699 -50.0977 9.0332 -48.7793 8.10547 -46.0449 C 7.12891 -43.2617 8.54492 -40.6738 11.6699 -38.4766 L 30.9082 -24.707 L 23.3398 -2.34375 C 22.1191 1.2207 22.5586 4.10156 24.8535 5.85938 Z M 34.4238 -7.22656 C 34.375 -7.32422 34.3262 -7.32422 34.375 -7.51953 L 40.8691 -25 C 41.8457 -27.6855 41.748 -28.8574 39.1602 -30.5176 L 23.6328 -40.8691 C 23.5352 -40.918 23.4375 -41.0156 23.4863 -41.0645 C 23.4863 -41.1621 23.584 -41.2109 23.7793 -41.2109 L 42.3828 -40.4785 C 45.2148 -40.3809 46.3379 -41.0156 47.0703 -43.7988 L 52.0508 -61.7188 C 52.0996 -61.9141 52.1484 -61.9629 52.2461 -61.9629 C 52.2949 -61.9629 52.3438 -61.9141 52.3926 -61.7188 L 57.373 -43.7988 C 58.1543 -41.0156 59.2285 -40.3809 62.1094 -40.4785 L 80.7129 -41.2109 C 80.9082 -41.2109 80.957 -41.1621 81.0059 -41.0645 C 81.0059 -41.0156 80.957 -40.9668 80.8594 -40.8691 L 65.2832 -30.5176 C 62.7441 -28.8086 62.6465 -27.6855 63.5742 -25 L 70.0684 -7.51953 C 70.1172 -7.32422 70.0684 -7.32422 70.0195 -7.22656 C 69.9707 -7.17773 69.9219 -7.22656 69.7754 -7.27539 L 55.1758 -18.8965 C 52.8809 -20.6543 51.5625 -20.6543 49.2676 -18.8965 L 34.668 -7.27539 C 34.5215 -7.22656 34.4727 -7.17773 34.4238 -7.22656 Z"/>
  </g>
  <g id="Semibold-S" transform="matrix(1 0 0 1 1991.56 696)">
   <path d="M 24.6582 5.41992 C 26.8066 7.08008 29.3945 6.54297 32.3242 4.39453 L 51.709 -9.86328 L 71.0449 4.39453 C 73.9746 6.54297 76.6113 7.08008 78.7598 5.41992 C 80.8594 3.85742 81.25 1.2207 80.127 -2.19727 L 72.4121 -24.9023 L 91.9434 -38.916 C 94.873 -40.9668 96.1914 -43.3594 95.3125 -45.8984 C 94.4824 -48.3887 92.0898 -49.5605 88.4766 -49.5117 L 64.5508 -49.3652 L 57.2754 -72.2168 C 56.1523 -75.6836 54.3457 -77.5879 51.709 -77.5879 C 49.0723 -77.5879 47.2168 -75.6836 46.0938 -72.2168 L 38.8672 -49.3652 L 14.8926 -49.5117 C 11.3281 -49.5605 8.93555 -48.3887 8.05664 -45.8984 C 7.22656 -43.3594 8.49609 -40.9668 11.4258 -38.916 L 30.957 -24.9023 L 23.291 -2.19727 C 22.1191 1.2207 22.5586 3.85742 24.6582 5.41992 Z M 33.0566 -6.05469 C 33.0078 -6.15234 33.0078 -6.20117 33.0566 -6.34766 L 39.8926 -25.1465 C 40.6738 -27.4414 40.5273 -28.6621 38.3301 -30.0781 L 21.7773 -41.2598 C 21.6309 -41.3574 21.582 -41.4062 21.582 -41.5039 C 21.6309 -41.6016 21.7285 -41.6016 21.875 -41.6016 L 41.8457 -40.9668 C 44.2871 -40.918 45.3613 -41.5527 46.0449 -43.9453 L 51.5137 -63.1348 C 51.5625 -63.3301 51.6113 -63.3789 51.709 -63.3789 C 51.8066 -63.3789 51.8555 -63.3301 51.9043 -63.1348 L 57.373 -43.9453 C 58.0078 -41.5527 59.1309 -40.918 61.5723 -40.9668 L 81.543 -41.6016 C 81.7383 -41.6016 81.7871 -41.6016 81.8359 -41.5039 C 81.8359 -41.4062 81.7871 -41.3574 81.6406 -41.2598 L 65.0391 -30.0781 C 62.8906 -28.6621 62.7441 -27.4414 63.5254 -25.1465 L 70.3613 -6.34766 C 70.4102 -6.20117 70.4102 -6.15234 70.3613 -6.05469 C 70.3125 -6.00586 70.2148 -6.05469 70.0684 -6.15234 L 54.3457 -18.5059 C 52.3926 -19.9707 50.9766 -19.9707 49.0723 -18.5059 L 33.3496 -6.15234 C 33.2031 -6.05469 33.1055 -6.00586 33.0566 -6.05469 Z"/>
  </g>
  <g id="Medium-S" transform="matrix(1 0 0 1 1695.26 696)">
   <path d="M 24.4629 5.12695 C 26.4648 6.64062 28.9062 6.10352 31.7383 4.05273 L 51.3184 -10.3516 L 70.8984 4.05273 C 73.6816 6.10352 76.123 6.64062 78.125 5.12695 C 80.0781 3.66211 80.4688 1.17188 79.3457 -2.05078 L 71.582 -25.0488 L 91.3574 -39.209 C 94.1406 -41.2109 95.3613 -43.4082 94.5801 -45.752 C 93.75 -48.0957 91.5527 -49.1699 88.0859 -49.1211 L 63.8672 -48.9746 L 56.543 -72.1191 C 55.4688 -75.3906 53.7598 -77.1973 51.3184 -77.1973 C 48.8281 -77.1973 47.168 -75.3906 46.0938 -72.1191 L 38.7207 -48.9746 L 14.502 -49.1211 C 11.084 -49.1699 8.83789 -48.0957 8.05664 -45.752 C 7.27539 -43.4082 8.49609 -41.2109 11.2793 -39.209 L 31.0547 -25.0488 L 23.291 -2.05078 C 22.168 1.17188 22.5586 3.66211 24.4629 5.12695 Z M 32.0312 -5.17578 C 31.9824 -5.27344 31.9824 -5.27344 32.0312 -5.46875 L 39.1113 -25.293 C 39.7949 -27.2949 39.5996 -28.5156 37.7441 -29.7852 L 20.3125 -41.5527 C 20.166 -41.6504 20.1172 -41.748 20.166 -41.7969 C 20.2148 -41.8945 20.2637 -41.9434 20.459 -41.9434 L 41.4551 -41.3574 C 43.5547 -41.3086 44.6777 -41.9434 45.2637 -44.043 L 51.123 -64.209 C 51.1719 -64.4043 51.2207 -64.4531 51.3184 -64.4531 C 51.416 -64.4531 51.4648 -64.4043 51.5137 -64.209 L 57.3242 -44.043 C 57.959 -41.9434 59.0332 -41.3086 61.1816 -41.3574 L 82.1289 -41.9434 C 82.3242 -41.9434 82.4219 -41.8945 82.4707 -41.7969 C 82.4707 -41.748 82.4219 -41.6992 82.2754 -41.5527 L 64.8926 -29.7852 C 63.0371 -28.5156 62.793 -27.2949 63.4766 -25.293 L 70.6055 -5.46875 C 70.6543 -5.27344 70.6543 -5.27344 70.6055 -5.17578 C 70.5566 -5.12695 70.459 -5.17578 70.3125 -5.22461 L 53.7109 -18.1641 C 52.0508 -19.4824 50.5859 -19.4824 48.9258 -18.1641 L 32.3242 -5.22461 C 32.1777 -5.17578 32.0801 -5.12695 32.0312 -5.17578 Z"/>
  </g>
  <g id="Regular-S" transform="matrix(1 0 0 1 1399.06 696)">
   <path d="M 24.2676 4.6875 C 26.0742 6.05469 28.2715 5.56641 30.9082 3.66211 L 50.7812 -10.9375 L 70.7031 3.66211 C 73.291 5.56641 75.4883 6.05469 77.2949 4.6875 C 79.0527 3.36914 79.3945 1.17188 78.3203 -1.85547 L 70.459 -25.2441 L 90.5273 -39.6484 C 93.1641 -41.5039 94.2871 -43.457 93.5547 -45.6055 C 92.8711 -47.6562 90.8203 -48.6816 87.5977 -48.6328 L 62.9883 -48.4375 L 55.5176 -71.9727 C 54.541 -75.0488 53.0273 -76.709 50.7812 -76.709 C 48.584 -76.709 47.0703 -75.0488 46.0449 -71.9727 L 38.5742 -48.4375 L 13.9648 -48.6328 C 10.7422 -48.6816 8.74023 -47.6562 8.00781 -45.6055 C 7.32422 -43.457 8.44727 -41.5039 11.0352 -39.6484 L 31.1035 -25.2441 L 23.2422 -1.85547 C 22.168 1.17188 22.5098 3.36914 24.2676 4.6875 Z M 30.6641 -4.05273 C 30.6152 -4.15039 30.6152 -4.15039 30.6641 -4.3457 L 38.1348 -25.4395 C 38.6719 -27.0508 38.3789 -28.3691 36.9141 -29.3457 L 18.457 -41.9922 C 18.3105 -42.0898 18.2617 -42.1387 18.3105 -42.2363 C 18.3594 -42.334 18.4082 -42.334 18.6035 -42.334 L 40.9668 -41.8457 C 42.6758 -41.7969 43.75 -42.4805 44.2871 -44.1895 L 50.5859 -65.625 C 50.6348 -65.8203 50.6836 -65.8691 50.7812 -65.8691 C 50.8789 -65.8691 50.9277 -65.8203 50.9766 -65.625 L 57.2754 -44.1895 C 57.8125 -42.4805 58.9355 -41.7969 60.6445 -41.8457 L 82.959 -42.334 C 83.1543 -42.334 83.2031 -42.334 83.252 -42.2363 C 83.3008 -42.1387 83.252 -42.0898 83.1055 -41.9922 L 64.6484 -29.3457 C 63.1836 -28.3691 62.8906 -27.0508 63.4766 -25.4395 L 70.8984 -4.3457 C 70.9473 -4.15039 70.9473 -4.15039 70.8984 -4.05273 C 70.8496 -3.95508 70.752 -4.00391 70.6055 -4.10156 L 52.8809 -17.7246 C 51.5625 -18.7988 50.0488 -18.7988 48.6816 -17.7246 L 31.0059 -4.10156 C 30.8594 -4.00391 30.7617 -3.95508 30.6641 -4.05273 Z"/>
  </g>
  <g id="Light-S" transform="matrix(1 0 0 1 1103.26 696)">
   <path d="M 23.9258 4.00391 C 25.3906 5.07812 27.1484 4.73633 29.3457 3.17383 L 49.9023 -11.9141 L 70.459 3.17383 C 72.6074 4.73633 74.3652 5.07812 75.8301 4.00391 C 77.2461 2.92969 77.5391 1.17188 76.709 -1.36719 L 68.6035 -25.5371 L 89.3555 -40.4297 C 91.5039 -41.9922 92.334 -43.6035 91.7969 -45.3125 C 91.2109 -46.9727 89.6484 -47.8027 86.9141 -47.8027 L 61.5234 -47.6562 L 53.7598 -71.9238 C 52.9297 -74.4629 51.6602 -75.7324 49.9023 -75.7324 C 48.0957 -75.7324 46.875 -74.4629 45.9961 -71.9238 L 38.2812 -47.6562 L 12.8418 -47.8027 C 10.1562 -47.8027 8.54492 -46.9727 7.95898 -45.3125 C 7.42188 -43.6035 8.25195 -41.9922 10.4492 -40.4297 L 31.1523 -25.5371 L 23.0957 -1.36719 C 22.2168 1.17188 22.5586 2.92969 23.9258 4.00391 Z M 28.7598 -2.58789 C 28.6621 -2.68555 28.7109 -2.73438 28.7598 -2.97852 L 36.4746 -25.4883 C 36.9629 -26.8555 36.7188 -27.9785 35.4492 -28.8574 L 15.918 -42.4316 C 15.7227 -42.5781 15.625 -42.6758 15.6738 -42.7734 C 15.7227 -42.8711 15.8203 -42.8711 16.0645 -42.8711 L 39.8926 -42.5293 C 41.3574 -42.5293 42.2852 -43.1152 42.7246 -44.5312 L 49.6582 -67.334 C 49.707 -67.5781 49.7559 -67.6758 49.9023 -67.6758 C 50 -67.6758 50.0488 -67.5781 50.1465 -67.334 L 57.0312 -44.5312 C 57.4707 -43.1152 58.4473 -42.5293 59.8633 -42.5293 L 83.6914 -42.8711 C 83.9355 -42.8711 84.0332 -42.8711 84.082 -42.7734 C 84.1309 -42.6758 84.0332 -42.5781 83.8379 -42.4316 L 64.3066 -28.8574 C 63.0859 -27.9785 62.793 -26.8555 63.2812 -25.4883 L 70.9961 -2.97852 C 71.0938 -2.73438 71.0938 -2.68555 71.0449 -2.58789 C 70.9473 -2.49023 70.8496 -2.53906 70.6543 -2.68555 L 51.6602 -17.041 C 50.5371 -17.9199 49.2188 -17.9199 48.0957 -17.041 L 29.1504 -2.68555 C 28.9551 -2.53906 28.8086 -2.49023 28.7598 -2.58789 Z"/>
  </g>
  <g id="Thin-S" transform="matrix(1 0 0 1 807.741 696)">
   <path d="M 23.4863 3.02734 C 24.4629 3.75977 25.6836 3.61328 27.2461 2.49023 L 48.6816 -13.1836 L 70.1172 2.49023 C 71.6797 3.61328 72.9004 3.75977 73.877 3.02734 C 74.8535 2.34375 75.1465 1.17188 74.5117 -0.732422 L 66.2109 -25.9277 L 87.7441 -41.4551 C 89.3555 -42.627 89.7949 -43.75 89.4531 -44.873 C 89.0625 -45.9961 88.0371 -46.6797 86.0352 -46.6797 L 59.5215 -46.582 L 51.416 -71.8262 C 50.7812 -73.7305 49.9023 -74.5117 48.6816 -74.5117 C 47.5098 -74.5117 46.582 -73.7305 45.9473 -71.8262 L 37.8418 -46.582 L 11.3281 -46.6797 C 9.32617 -46.6797 8.30078 -45.9961 7.91016 -44.873 C 7.56836 -43.75 8.05664 -42.627 9.61914 -41.4551 L 31.1523 -25.9277 L 22.8516 -0.732422 C 22.2168 1.17188 22.5586 2.34375 23.4863 3.02734 Z M 26.1719 -0.634766 C 26.0254 -0.732422 26.123 -0.830078 26.2207 -1.17188 L 34.3262 -25.5371 C 34.7168 -26.6113 34.4727 -27.4902 33.4961 -28.1738 L 12.5488 -43.0664 C 12.3047 -43.2129 12.1582 -43.3594 12.207 -43.5059 C 12.2559 -43.6035 12.4512 -43.6035 12.7441 -43.6035 L 38.5254 -43.4082 C 39.5996 -43.4082 40.332 -43.8965 40.6738 -45.0195 L 48.3887 -69.5312 C 48.4863 -69.8242 48.5352 -70.0195 48.6816 -70.0195 C 48.8281 -70.0195 48.9258 -69.8242 48.9746 -69.5312 L 56.6895 -45.0195 C 57.0312 -43.8965 57.7637 -43.4082 58.8867 -43.4082 L 84.6191 -43.6035 C 84.9609 -43.6035 85.1074 -43.6035 85.1562 -43.5059 C 85.2051 -43.3594 85.0586 -43.2129 84.8145 -43.0664 L 63.8672 -28.1738 C 62.9395 -27.4902 62.6465 -26.6113 63.0371 -25.5371 L 71.1914 -1.17188 C 71.2402 -0.830078 71.3379 -0.732422 71.1914 -0.634766 C 71.0938 -0.537109 70.9473 -0.634766 70.7031 -0.78125 L 50.0488 -16.1133 C 49.1699 -16.7969 48.1934 -16.7969 47.3145 -16.1133 L 26.6602 -0.78125 C 26.416 -0.634766 26.2695 -0.537109 26.1719 -0.634766 Z"/>
  </g>
  <g id="Ultralight-S" transform="matrix(1 0 0 1 511.64 696)">
   <path d="M 23.291 2.53906 C 24.0234 3.07617 24.9023 3.07617 26.2207 2.14844 L 48.0957 -13.8672 L 69.9707 2.14844 C 71.2402 3.07617 72.1191 3.07617 72.8516 2.53906 C 73.6328 2.00195 73.9258 1.17188 73.3887 -0.439453 L 64.9902 -26.123 L 86.9629 -41.9922 C 88.2324 -42.9199 88.5254 -43.8477 88.2324 -44.6777 C 87.9883 -45.5078 87.2559 -46.0938 85.5957 -46.0938 L 58.4961 -46.0449 L 50.1953 -71.7773 C 49.707 -73.3398 48.9746 -73.877 48.0957 -73.877 C 47.168 -73.877 46.4355 -73.3398 45.9473 -71.7773 L 37.6465 -46.0449 L 10.5469 -46.0938 C 8.93555 -46.0938 8.1543 -45.5078 7.91016 -44.6777 C 7.61719 -43.8477 7.91016 -42.9199 9.22852 -41.9922 L 31.2012 -26.123 L 22.7539 -0.439453 C 22.2656 1.17188 22.5586 2.00195 23.291 2.53906 Z M 24.8535 0.341797 C 24.707 0.244141 24.8047 0.0976562 24.9023 -0.195312 L 33.252 -25.5859 C 33.5449 -26.4648 33.3008 -27.2461 32.4707 -27.832 L 10.8398 -43.4082 C 10.5469 -43.5547 10.4004 -43.7012 10.4492 -43.8477 C 10.498 -43.9941 10.6934 -43.9941 11.0352 -43.9941 L 37.793 -43.8965 C 38.7207 -43.8965 39.3066 -44.3359 39.6484 -45.2637 L 47.7539 -70.7031 C 47.8516 -70.9961 47.9492 -71.1914 48.0957 -71.1914 C 48.2422 -71.1914 48.3398 -70.9961 48.3887 -70.7031 L 56.543 -45.2637 C 56.8359 -44.3359 57.4219 -43.8965 58.3496 -43.8965 L 85.1074 -43.9941 C 85.4492 -43.9941 85.6445 -43.9941 85.6934 -43.8477 C 85.7422 -43.7012 85.5957 -43.5547 85.3027 -43.4082 L 63.6719 -27.832 C 62.8418 -27.2461 62.5977 -26.4648 62.8906 -25.5859 L 71.2402 -0.195312 C 71.3379 0.0976562 71.4355 0.244141 71.2891 0.341797 C 71.1426 0.439453 70.9961 0.341797 70.752 0.146484 L 49.2676 -15.625 C 48.4863 -16.2109 47.6562 -16.2109 46.9238 -15.625 L 25.4395 0.146484 C 25.1465 0.341797 25 0.439453 24.8535 0.341797 Z"/>
  </g>
 </g>
</svg>
